<svg xmlns="http://www.w3.org/2000/svg" viewBox="0 0 499.1 349.01"><defs><style>.cls-1{fill:#c4d9e8;opacity:0.5;}.cls-2{fill:#173d7a;}.cls-3{fill:#396caa;}.cls-4{fill:#274f89;}.cls-13,.cls-5{fill:#d4ecff;}.cls-12,.cls-6{fill:#fff;}.cls-7{fill:#5793ce;}.cls-8{fill:#004fac;}.cls-9{fill:#025fbc;}.cls-10{fill:#3c80c3;}.cls-11{fill:#fafdff;}.cls-12,.cls-13{opacity:0.4;}</style></defs><g id="Layer_2" data-name="Layer 2"><g id="Ñëîé_1" data-name="Ñëîé 1"><path class="cls-1" d="M319.11,347.16,151.2,250.22c-4.75-2.74-4.15-7.53,1.33-10.7l114.34-66c5.48-3.16,13.78-3.51,18.53-.76l167.9,96.94c4.75,2.74,4.16,7.53-1.33,10.7l-114.33,66C332.16,349.56,323.86,349.9,319.11,347.16Z"/><path class="cls-2" d="M492.63,98,324.72,1A6.77,6.77,0,0,0,319,.34v0l-.3.12-.08,0L312.6,2.79,318,5.45a2.63,2.63,0,0,1-.08.3L290.62,130.24c-1.37,6.23,1.37,13.51,6.12,16.25L460.6,241.1,460,248l6.63-2.57c2.23-1,4-3.4,4.75-6.75l27.35-124.5C500.12,108,497.38,100.72,492.63,98Z"/><path class="cls-3" d="M492.63,98,324.72,1A6.77,6.77,0,0,0,319,.34v0l-.3.12-.08,0L312.6,2.79,318,5.45a2.63,2.63,0,0,1-.08.3l-18,82.05,82.15,64,115.84-47.13A13,13,0,0,0,492.63,98Z"/><path class="cls-4" d="M486.3,117.11l12.78-5.44c.23-5-1.82-10.06-5.18-12.8l-20.23,8.52Z"/><path class="cls-5" d="M454.19,247.38,286.28,150.44c-4.75-2.74-7.49-10-6.12-16.24L307.51,9.7c1.37-6.23,6.33-9,11.08-6.31l167.9,96.94c4.75,2.74,7.49,10,6.12,16.24l-27.34,124.5C463.9,247.3,458.94,250.12,454.19,247.38Z"/><path class="cls-6" d="M450.55,238.12,292.64,147c-4.35-2.51-6.86-9.17-5.61-14.87l25-113.92c1.25-5.7,5.79-8.29,10.14-5.78l157.91,91.13c4.35,2.51,6.85,9.16,5.6,14.86l-25,113.92C459.43,238,454.89,240.63,450.55,238.12Z"/><path class="cls-6" d="M450.55,238.12,292.64,147c-4.35-2.51-6.86-9.17-5.61-14.87l25-113.92c1.25-5.7,5.79-8.29,10.14-5.78l157.91,91.13c4.35,2.51,6.85,9.16,5.6,14.86l-25,113.92C459.43,238,454.89,240.63,450.55,238.12Z"/><path class="cls-2" d="M456.51,251.6l-23-3L285.4,163c-4.75-2.74-13-2.39-18.53.77l-105,60.59L148,222.56v7.87h0c-.09,1.82.94,3.57,3.18,4.86l167.91,96.94c4.75,2.74,13.05,2.4,18.53-.77l114.33-66c3.09-1.79,4.63-4.08,4.54-6.24h0Z"/><path class="cls-3" d="M345.19,197.55l-10.53-6.07H218.93l-57.05,32.91L148,222.56v7.87h0c-.09,1.82.94,3.57,3.18,4.86l167.91,96.94a17.32,17.32,0,0,0,9.56,1.79Z"/><path class="cls-7" d="M154.16,223.37l-6.16-.81v7.87h0c-.09,1.82.94,3.57,3.18,4.86l3,1.71Z"/><path class="cls-4" d="M320.8,333c4.5,1.7,10.94,1.33,15.75-1V314.48H320.8Z"/><path class="cls-5" d="M319.11,324.38,151.2,227.44c-4.75-2.75-4.15-7.54,1.33-10.7l114.34-66c5.48-3.17,13.78-3.51,18.53-.77l167.9,96.94c4.75,2.74,4.16,7.53-1.33,10.7l-114.33,66C332.16,326.77,323.86,327.12,319.11,324.38Z"/><path class="cls-6" d="M452,254.74l-114.33,66c-5.48,3.17-13.78,3.51-18.53.77L151.2,224.56a6.3,6.3,0,0,1-2.95-3.23c-.74,2.25.21,4.52,2.95,6.11l167.91,96.94c4.75,2.74,13.05,2.39,18.53-.77l114.33-66c3.69-2.13,5.15-5,4.29-7.47A9,9,0,0,1,452,254.74Z"/><path class="cls-2" d="M222.62,195.34,215,191c-.61-.36-.53-1,.17-1.38l9-5.17a2.61,2.61,0,0,1,2.38-.1l7.59,4.38c.61.35.54,1-.17,1.38l-9,5.17A2.64,2.64,0,0,1,222.62,195.34Z"/><path class="cls-2" d="M234.35,202.12l-7.6-4.39c-.61-.35-.53-1,.17-1.37l9-5.18a2.64,2.64,0,0,1,2.38-.1l7.6,4.39c.61.35.53,1-.17,1.37l-9,5.18A2.67,2.67,0,0,1,234.35,202.12Z"/><path class="cls-2" d="M246.08,208.89l-7.6-4.39c-.61-.35-.53-1,.17-1.37l9-5.18a2.67,2.67,0,0,1,2.38-.1l7.6,4.39c.61.35.53,1-.17,1.37l-9,5.18A2.64,2.64,0,0,1,246.08,208.89Z"/><path class="cls-2" d="M262.31,203.3l-7.6-4.39c-.61-.35-.53-1,.17-1.37l7.53-4.35a2.64,2.64,0,0,1,2.38-.1l7.6,4.39c.61.35.53,1-.18,1.37l-7.52,4.35A2.67,2.67,0,0,1,262.31,203.3Z"/><path class="cls-2" d="M274,210.07l-7.6-4.39c-.61-.35-.53-1,.17-1.37l7.53-4.35a2.67,2.67,0,0,1,2.38-.1l7.6,4.39c.61.35.53,1-.17,1.37L276.42,210A2.64,2.64,0,0,1,274,210.07Z"/><path class="cls-2" d="M285.77,216.84l-7.6-4.38c-.61-.36-.53-1,.18-1.38l7.52-4.34a2.64,2.64,0,0,1,2.38-.1l7.6,4.38c.61.36.53,1-.17,1.38l-7.53,4.34A2.64,2.64,0,0,1,285.77,216.84Z"/><path class="cls-2" d="M297.5,223.62l-7.59-4.39c-.61-.35-.54-1,.17-1.37l7.52-4.35a2.64,2.64,0,0,1,2.38-.1l7.6,4.39c.61.35.54,1-.17,1.37l-7.53,4.35A2.67,2.67,0,0,1,297.5,223.62Z"/><path class="cls-2" d="M309.24,230.39l-7.6-4.39c-.61-.35-.53-1,.17-1.37l7.53-4.35a2.64,2.64,0,0,1,2.38-.09l7.59,4.38c.61.35.54,1-.17,1.38l-7.52,4.34A2.64,2.64,0,0,1,309.24,230.39Z"/><path class="cls-2" d="M321,237.16l-7.6-4.38c-.61-.35-.53-1,.17-1.38l7.53-4.34a2.64,2.64,0,0,1,2.38-.1l7.6,4.38c.61.36.53,1-.17,1.38l-7.53,4.34A2.61,2.61,0,0,1,321,237.16Z"/><path class="cls-2" d="M332.7,243.94l-7.6-4.39c-.61-.35-.53-1,.17-1.37l7.53-4.35a2.64,2.64,0,0,1,2.38-.1l7.6,4.39c.61.35.53,1-.17,1.37l-7.53,4.35A2.64,2.64,0,0,1,332.7,243.94Z"/><path class="cls-2" d="M344.43,250.71l-7.59-4.39c-.61-.35-.54-1,.17-1.37l7.52-4.35a2.64,2.64,0,0,1,2.38-.09l7.6,4.38c.61.35.53,1-.17,1.38l-7.53,4.34A2.64,2.64,0,0,1,344.43,250.71Z"/><path class="cls-2" d="M356.16,257.48l-7.59-4.38c-.61-.35-.54-1,.17-1.38l7.53-4.34a2.64,2.64,0,0,1,2.38-.1l7.59,4.39c.61.35.54,1-.17,1.37l-7.53,4.35A2.64,2.64,0,0,1,356.16,257.48Z"/><path class="cls-2" d="M367.9,264.26l-7.6-4.39c-.61-.35-.53-1,.17-1.37l7.53-4.35a2.64,2.64,0,0,1,2.38-.1l7.59,4.39c.61.35.54,1-.17,1.37l-7.52,4.35A2.64,2.64,0,0,1,367.9,264.26Z"/><path class="cls-3" d="M279.59,200.09,272,195.7c-.61-.35-.54-1,.17-1.37l7.52-4.35a2.67,2.67,0,0,1,2.38-.1l7.6,4.39c.61.35.54,1-.17,1.37L282,200A2.64,2.64,0,0,1,279.59,200.09Z"/><path class="cls-3" d="M267.69,193.21l-7.6-4.38c-.61-.35-.53-1,.17-1.38l7.53-4.34a2.64,2.64,0,0,1,2.38-.1l7.59,4.39c.61.35.54,1-.17,1.37l-7.52,4.35A2.64,2.64,0,0,1,267.69,193.21Z"/><path class="cls-2" d="M255.76,186.33l-16.36-9.45c-.61-.35-.54-1,.17-1.37l7.53-4.35a2.67,2.67,0,0,1,2.38-.1l16.36,9.45c.61.35.53,1-.17,1.37l-7.53,4.35A2.64,2.64,0,0,1,255.76,186.33Z"/><path class="cls-2" d="M264.1,178l-13.28-7.66c-.61-.35-.54-1,.17-1.38l7.53-4.34a2.64,2.64,0,0,1,2.38-.1l13.27,7.67c.61.35.54,1-.17,1.37l-7.52,4.35A2.64,2.64,0,0,1,264.1,178Z"/><path class="cls-3" d="M291.33,206.86l-7.6-4.38c-.61-.36-.53-1,.17-1.38l7.53-4.34a2.64,2.64,0,0,1,2.38-.1L301.4,201c.61.36.54,1-.17,1.38l-7.52,4.34A2.64,2.64,0,0,1,291.33,206.86Z"/><path class="cls-2" d="M303.06,213.64l-7.6-4.39c-.61-.35-.53-1,.17-1.37l7.53-4.35a2.64,2.64,0,0,1,2.38-.1l7.6,4.39c.61.35.53,1-.17,1.37l-7.53,4.35A2.67,2.67,0,0,1,303.06,213.64Z"/><path class="cls-2" d="M314.79,220.41l-7.6-4.39c-.61-.35-.53-1,.17-1.37l7.53-4.35a2.67,2.67,0,0,1,2.38-.1l7.6,4.39c.61.35.53,1-.17,1.37l-7.53,4.35A2.64,2.64,0,0,1,314.79,220.41Z"/><path class="cls-2" d="M326.52,227.18l-7.59-4.38c-.61-.36-.54-1,.17-1.38l7.52-4.34A2.64,2.64,0,0,1,329,217l7.6,4.38c.61.36.53,1-.17,1.38l-7.53,4.34A2.61,2.61,0,0,1,326.52,227.18Z"/><path class="cls-2" d="M338.25,234l-7.59-4.39c-.61-.35-.54-1,.17-1.37l7.53-4.35a2.64,2.64,0,0,1,2.38-.1l7.59,4.39c.61.35.54,1-.17,1.37l-7.53,4.35A2.67,2.67,0,0,1,338.25,234Z"/><path class="cls-2" d="M350,240.73l-7.6-4.39c-.61-.35-.53-1,.17-1.37l7.53-4.35a2.64,2.64,0,0,1,2.38-.09l7.59,4.38c.61.35.54,1-.17,1.38l-7.52,4.34A2.64,2.64,0,0,1,350,240.73Z"/><path class="cls-2" d="M361.72,247.5l-7.6-4.38c-.61-.35-.53-1,.17-1.38l7.53-4.34a2.64,2.64,0,0,1,2.38-.1l7.6,4.39c.61.35.53,1-.17,1.37l-7.53,4.35A2.64,2.64,0,0,1,361.72,247.5Z"/><path class="cls-2" d="M373.45,254.28l-7.6-4.39c-.61-.35-.53-1,.17-1.37l7.53-4.35a2.64,2.64,0,0,1,2.38-.1l7.6,4.39c.61.35.53,1-.17,1.37l-7.53,4.35A2.64,2.64,0,0,1,373.45,254.28Z"/><path class="cls-2" d="M385.18,261.05l-7.59-4.39c-.61-.35-.54-1,.17-1.37l7.52-4.35a2.64,2.64,0,0,1,2.38-.09l7.6,4.38c.61.35.53,1-.17,1.38L387.56,261A2.64,2.64,0,0,1,385.18,261.05Z"/><path class="cls-2" d="M406,273.09l-16.58-9.57c-.61-.35-.53-1,.17-1.37l7.53-4.35a2.67,2.67,0,0,1,2.38-.1l16.58,9.57c.61.36.53,1-.17,1.38L408.42,273A2.64,2.64,0,0,1,406,273.09Z"/><path class="cls-2" d="M428.88,259.91l-14-8.08c-.61-.35-.53-1,.17-1.38l7.53-4.34A2.64,2.64,0,0,1,425,246l14,8.08c.61.35.53,1-.17,1.37l-7.53,4.35A2.67,2.67,0,0,1,428.88,259.91Z"/><path class="cls-2" d="M311.87,205.54l-7.6-4.39c-.61-.35-.53-1,.18-1.37l7.52-4.35a2.64,2.64,0,0,1,2.38-.1l7.6,4.39c.61.35.53,1-.17,1.37l-7.53,4.35A2.64,2.64,0,0,1,311.87,205.54Z"/><path class="cls-2" d="M299.85,198.6l-7.6-4.39c-.61-.35-.53-1,.17-1.38l7.53-4.34a2.64,2.64,0,0,1,2.38-.1l7.6,4.39c.61.35.53,1-.18,1.37l-7.52,4.35A2.67,2.67,0,0,1,299.85,198.6Z"/><path class="cls-3" d="M287.82,191.65l-7.59-4.38c-.61-.36-.54-1,.17-1.38l7.52-4.34a2.64,2.64,0,0,1,2.38-.1l7.6,4.38c.61.36.53,1-.17,1.38l-7.53,4.34A2.61,2.61,0,0,1,287.82,191.65Z"/><path class="cls-2" d="M275.8,184.71l-7.6-4.39c-.61-.35-.53-1,.17-1.37l7.53-4.35a2.64,2.64,0,0,1,2.38-.09l7.6,4.38c.61.35.53,1-.17,1.38l-7.53,4.34A2.64,2.64,0,0,1,275.8,184.71Z"/><path class="cls-2" d="M323.6,212.31,316,207.92c-.61-.35-.54-1,.17-1.37l7.52-4.35a2.64,2.64,0,0,1,2.38-.09l7.6,4.38c.61.35.54,1-.17,1.38L326,212.21A2.64,2.64,0,0,1,323.6,212.31Z"/><path class="cls-2" d="M335.34,219.08l-7.6-4.38c-.61-.35-.53-1,.17-1.38l7.53-4.34a2.64,2.64,0,0,1,2.38-.1l7.59,4.39c.61.35.54,1-.17,1.37L337.72,219A2.64,2.64,0,0,1,335.34,219.08Z"/><path class="cls-2" d="M347.07,225.86l-7.6-4.39c-.61-.35-.53-1,.17-1.37l7.53-4.35a2.67,2.67,0,0,1,2.38-.1l7.6,4.39c.61.35.53,1-.18,1.37l-7.52,4.35A2.64,2.64,0,0,1,347.07,225.86Z"/><path class="cls-2" d="M358.8,232.63l-7.6-4.38c-.61-.36-.53-1,.17-1.38l7.53-4.34a2.61,2.61,0,0,1,2.38-.1l7.6,4.38c.61.35.53,1-.17,1.38l-7.53,4.34A2.64,2.64,0,0,1,358.8,232.63Z"/><path class="cls-2" d="M370.53,239.4l-7.6-4.38c-.6-.35-.53-1,.18-1.38l7.52-4.34a2.64,2.64,0,0,1,2.38-.1l7.6,4.39c.61.35.53,1-.17,1.37l-7.53,4.35A2.64,2.64,0,0,1,370.53,239.4Z"/><path class="cls-2" d="M382.26,246.18l-7.59-4.39c-.61-.35-.54-1,.17-1.37l7.53-4.35a2.67,2.67,0,0,1,2.38-.1l7.59,4.39c.61.35.54,1-.17,1.37l-7.53,4.35A2.64,2.64,0,0,1,382.26,246.18Z"/><path class="cls-2" d="M394,253l-7.6-4.38c-.61-.36-.53-1,.17-1.38l7.53-4.34a2.61,2.61,0,0,1,2.38-.1l7.59,4.38c.61.36.54,1-.17,1.38l-7.52,4.34A2.64,2.64,0,0,1,394,253Z"/><path class="cls-2" d="M405.73,259.73l-7.6-4.39c-.61-.35-.53-1,.17-1.37l7.53-4.35a2.64,2.64,0,0,1,2.38-.1l7.6,4.39c.61.35.53,1-.17,1.37l-7.53,4.35A2.67,2.67,0,0,1,405.73,259.73Z"/><path class="cls-2" d="M417.46,266.5l-7.6-4.39c-.61-.35-.53-1,.17-1.37l7.53-4.35a2.67,2.67,0,0,1,2.38-.1l7.6,4.39c.61.35.53,1-.17,1.37l-7.53,4.35A2.64,2.64,0,0,1,417.46,266.5Z"/><path class="cls-2" d="M305.69,188.78l-7.59-4.38c-.61-.36-.54-1,.17-1.38l7.52-4.34a2.64,2.64,0,0,1,2.38-.1l7.6,4.38c.61.36.54,1-.17,1.38l-7.53,4.34A2.61,2.61,0,0,1,305.69,188.78Z"/><path class="cls-2" d="M294,182l-7.6-4.38c-.61-.36-.53-1,.17-1.38l7.53-4.34a2.64,2.64,0,0,1,2.38-.1l7.6,4.38c.61.36.53,1-.17,1.38l-7.53,4.34A2.61,2.61,0,0,1,294,182Z"/><path class="cls-2" d="M282.35,175.3l-7.6-4.38c-.61-.35-.53-1,.17-1.38l7.53-4.34a2.64,2.64,0,0,1,2.38-.1l7.59,4.38c.61.36.54,1-.17,1.38l-7.52,4.34A2.61,2.61,0,0,1,282.35,175.3Z"/><path class="cls-2" d="M270.67,168.56l-7.59-4.38c-.61-.35-.54-1,.17-1.38l7.52-4.34a2.64,2.64,0,0,1,2.38-.1l7.6,4.39c.61.35.53,1-.17,1.37l-7.53,4.34A2.61,2.61,0,0,1,270.67,168.56Z"/><path class="cls-2" d="M282.68,161.63l-7.6-4.38c-.61-.36-.53-1,.17-1.38l2.49-1.43a2.64,2.64,0,0,1,2.38-.1l7.6,4.38c.61.36.53,1-.18,1.38l-2.48,1.43A2.61,2.61,0,0,1,282.68,161.63Z"/><path class="cls-2" d="M297.91,170.43l-7.6-4.39c-.61-.35-.53-1,.17-1.37l2.49-1.44a2.67,2.67,0,0,1,2.38-.1l7.6,4.39c.61.35.53,1-.17,1.37l-2.49,1.44A2.64,2.64,0,0,1,297.91,170.43Z"/><path class="cls-2" d="M309.54,177.14l-7.6-4.39c-.61-.35-.53-1,.17-1.37l2.49-1.44a2.67,2.67,0,0,1,2.38-.1l7.6,4.39c.61.35.53,1-.18,1.37L311.92,177A2.64,2.64,0,0,1,309.54,177.14Z"/><path class="cls-2" d="M321.16,183.85l-7.6-4.38c-.61-.36-.53-1,.17-1.38l2.49-1.43a2.61,2.61,0,0,1,2.38-.1l7.6,4.38c.61.35.53,1-.17,1.38l-2.49,1.43A2.64,2.64,0,0,1,321.16,183.85Z"/><path class="cls-2" d="M332.79,190.56l-7.6-4.38c-.61-.35-.53-1,.17-1.38l2.49-1.43a2.64,2.64,0,0,1,2.38-.1l7.6,4.38c.61.36.53,1-.18,1.38l-2.48,1.44A2.64,2.64,0,0,1,332.79,190.56Z"/><path class="cls-2" d="M397.69,228l-7.6-4.38c-.61-.35-.53-1,.17-1.38l2.49-1.43a2.64,2.64,0,0,1,2.38-.1l7.6,4.39c.61.35.53,1-.17,1.37l-2.49,1.44A2.64,2.64,0,0,1,397.69,228Z"/><path class="cls-2" d="M409.31,234.75l-7.59-4.39c-.61-.35-.54-1,.17-1.37l2.48-1.44a2.64,2.64,0,0,1,2.38-.1l7.6,4.39c.61.35.54,1-.17,1.37l-2.49,1.44A2.67,2.67,0,0,1,409.31,234.75Z"/><path class="cls-2" d="M420.94,241.46l-7.6-4.39c-.61-.35-.53-1,.17-1.37l2.49-1.44a2.64,2.64,0,0,1,2.38-.1l7.6,4.39c.61.35.53,1-.17,1.37l-2.49,1.44A2.64,2.64,0,0,1,420.94,241.46Z"/><path class="cls-2" d="M432.56,248.17,425,243.78c-.61-.35-.54-1,.17-1.37l2.48-1.44a2.67,2.67,0,0,1,2.38-.1l7.6,4.39c.61.35.54,1-.17,1.37l-2.49,1.44A2.64,2.64,0,0,1,432.56,248.17Z"/><path class="cls-2" d="M317.43,195.56l-7.6-4.39c-.61-.35-.53-1,.17-1.37l7.53-4.35a2.64,2.64,0,0,1,2.38-.1l7.59,4.39c.61.35.54,1-.17,1.37l-7.52,4.35A2.67,2.67,0,0,1,317.43,195.56Z"/><path class="cls-2" d="M329.16,202.33l-7.6-4.39c-.61-.35-.53-1,.17-1.37l7.53-4.35a2.64,2.64,0,0,1,2.38-.09l7.6,4.38c.61.35.53,1-.17,1.38l-7.53,4.34A2.64,2.64,0,0,1,329.16,202.33Z"/><path class="cls-2" d="M340.89,209.1l-7.6-4.38c-.61-.35-.53-1,.17-1.38L341,199a2.64,2.64,0,0,1,2.38-.1l7.6,4.39c.61.35.53,1-.17,1.37L343.27,209A2.64,2.64,0,0,1,340.89,209.1Z"/><path class="cls-2" d="M352.62,215.88,345,211.49c-.61-.35-.54-1,.17-1.37l7.52-4.35a2.64,2.64,0,0,1,2.38-.1l7.6,4.39c.61.35.53,1-.17,1.37L355,215.78A2.64,2.64,0,0,1,352.62,215.88Z"/><path class="cls-2" d="M364.35,222.65l-7.59-4.39c-.61-.35-.54-1,.17-1.37l7.53-4.35a2.64,2.64,0,0,1,2.38-.09l7.59,4.38c.61.35.54,1-.17,1.38l-7.53,4.34A2.64,2.64,0,0,1,364.35,222.65Z"/><path class="cls-2" d="M376.09,229.42l-7.6-4.38c-.61-.35-.53-1,.17-1.38l7.53-4.34a2.64,2.64,0,0,1,2.38-.1l7.59,4.39c.61.35.54,1-.17,1.37l-7.52,4.35A2.64,2.64,0,0,1,376.09,229.42Z"/><path class="cls-2" d="M387.82,236.2l-7.6-4.39c-.61-.35-.53-1,.17-1.37l7.53-4.35a2.67,2.67,0,0,1,2.38-.1l7.6,4.39c.61.35.53,1-.17,1.37l-7.53,4.35A2.64,2.64,0,0,1,387.82,236.2Z"/><path class="cls-2" d="M399.55,243l-7.6-4.38c-.61-.36-.53-1,.17-1.38l7.53-4.34a2.61,2.61,0,0,1,2.38-.1l7.6,4.38c.61.36.53,1-.17,1.38l-7.53,4.34A2.64,2.64,0,0,1,399.55,243Z"/><path class="cls-2" d="M411.28,249.75l-7.59-4.39c-.61-.35-.54-1,.17-1.38l7.52-4.34a2.64,2.64,0,0,1,2.38-.1l7.6,4.39c.61.35.53,1-.17,1.37l-7.53,4.35A2.67,2.67,0,0,1,411.28,249.75Z"/><path class="cls-2" d="M250.35,196.39,228,183.48c-.61-.36-.54-1,.17-1.38l7.53-4.34a2.61,2.61,0,0,1,2.38-.1l22.37,12.91c.61.36.53,1-.17,1.38l-7.53,4.34A2.61,2.61,0,0,1,250.35,196.39Z"/><path class="cls-2" d="M394.48,279.61l-22.37-12.92c-.61-.35-.53-1,.17-1.37l7.53-4.35a2.64,2.64,0,0,1,2.38-.1l22.37,12.92c.61.35.53,1-.17,1.37l-7.53,4.35A2.64,2.64,0,0,1,394.48,279.61Z"/><path class="cls-2" d="M347.57,267.48,340,263.1c-.61-.36-.54-1,.17-1.38l9-5.18a2.64,2.64,0,0,1,2.38-.09l7.59,4.38c.61.35.54,1-.17,1.38l-9,5.17A2.62,2.62,0,0,1,347.57,267.48Z"/><path class="cls-2" d="M262.37,218.29l-12.15-7c-.61-.36-.54-1,.17-1.38l9-5.17a2.61,2.61,0,0,1,2.38-.1l12.15,7c.61.35.54,1-.17,1.38l-9,5.17A2.64,2.64,0,0,1,262.37,218.29Z"/><path class="cls-2" d="M336.26,261l-12.15-7c-.61-.35-.53-1,.17-1.37l9-5.18a2.64,2.64,0,0,1,2.38-.1l12.15,7c.61.35.53,1-.17,1.37l-9,5.18A2.64,2.64,0,0,1,336.26,261Z"/><path class="cls-2" d="M279.29,228.06l-12.15-7c-.61-.35-.53-1,.17-1.37l9-5.18a2.64,2.64,0,0,1,2.38-.1l12.15,7c.61.36.53,1-.17,1.38l-9,5.18A2.64,2.64,0,0,1,279.29,228.06Z"/><path class="cls-2" d="M278.74,214.45,331.57,245a.73.73,0,0,1,0,1.37l-9.15,5.28a2.67,2.67,0,0,1-2.37,0l-52.82-30.5Z"/><path class="cls-2" d="M380.35,279.76l8.47,4.89c.5.29.43.79-.14,1.12L385,287.89a2.14,2.14,0,0,1-1.95.08l-8.46-4.88c-.5-.29-.44-.8.14-1.13l3.66-2.12A2.17,2.17,0,0,1,380.35,279.76Z"/><path class="cls-2" d="M368.52,272.93l8.47,4.89c.5.29.43.79-.14,1.12l-3.67,2.12a2.14,2.14,0,0,1-1.95.08l-8.46-4.88c-.5-.29-.44-.8.14-1.13l3.66-2.12A2.17,2.17,0,0,1,368.52,272.93Z"/><path class="cls-2" d="M356.79,266.16l8.47,4.88c.5.29.43.8-.14,1.13l-3.67,2.12a2.17,2.17,0,0,1-1.95.08L351,269.48c-.5-.28-.43-.79.14-1.12l3.67-2.12A2.17,2.17,0,0,1,356.79,266.16Z"/><path class="cls-2" d="M375,269.19l8.47,4.89c.5.29.43.79-.14,1.12l-3.67,2.12a2.14,2.14,0,0,1-2,.08l-8.47-4.88c-.5-.29-.43-.8.14-1.13l3.67-2.12A2.17,2.17,0,0,1,375,269.19Z"/><path class="cls-5" d="M359.46,61.56l-11.23-6.48a3.22,3.22,0,0,1-1.37-3.32h0a1.56,1.56,0,0,1,2.4-1.15l11.23,6.48a3.21,3.21,0,0,1,1.37,3.33h0A1.56,1.56,0,0,1,359.46,61.56Z"/><path class="cls-5" d="M386.2,77l-16.55-9.56a3.19,3.19,0,0,1-1.37-3.32h0a1.56,1.56,0,0,1,2.4-1.15l16.55,9.56a3.19,3.19,0,0,1,1.37,3.33h0A1.56,1.56,0,0,1,386.2,77Z"/><path class="cls-5" d="M339.89,114l-11.23-6.48a3.23,3.23,0,0,1-1.37-3.33h0a1.57,1.57,0,0,1,2.4-1.15l11.23,6.49a3.2,3.2,0,0,1,1.37,3.32h0A1.56,1.56,0,0,1,339.89,114Z"/><path class="cls-5" d="M363.73,127.73l-16.56-9.56a3.22,3.22,0,0,1-1.37-3.32h0a1.57,1.57,0,0,1,2.41-1.15l16.55,9.56a3.2,3.2,0,0,1,1.37,3.32h0A1.56,1.56,0,0,1,363.73,127.73Z"/><path class="cls-5" d="M326.34,53.06l-7-4.05A3.21,3.21,0,0,1,318,45.68h0a1.56,1.56,0,0,1,2.4-1.14l7,4.05a3.2,3.2,0,0,1,1.37,3.32h0A1.56,1.56,0,0,1,326.34,53.06Z"/><path class="cls-5" d="M348,76.16,326.53,63.78a3.2,3.2,0,0,1-1.37-3.32h0a1.56,1.56,0,0,1,2.4-1.15L349,71.68A3.23,3.23,0,0,1,350.36,75h0A1.57,1.57,0,0,1,348,76.16Z"/><path class="cls-5" d="M329.22,86.57l-7-4a3.22,3.22,0,0,1-1.37-3.32h0a1.56,1.56,0,0,1,2.4-1.15l7,4a3.22,3.22,0,0,1,1.37,3.32h0A1.56,1.56,0,0,1,329.22,86.57Z"/><path class="cls-5" d="M367.34,151.05,348.6,140.23a3.22,3.22,0,0,1-1.37-3.32h0a1.57,1.57,0,0,1,2.41-1.15l18.73,10.82a3.22,3.22,0,0,1,1.37,3.32h0A1.56,1.56,0,0,1,367.34,151.05Z"/><path class="cls-5" d="M322.38,103.86l-4.5-2.6a3.21,3.21,0,0,1-1.37-3.33h0a1.56,1.56,0,0,1,2.4-1.14l4.5,2.6a3.2,3.2,0,0,1,1.37,3.32h0A1.56,1.56,0,0,1,322.38,103.86Z"/><path class="cls-5" d="M319.14,123.22,313.55,120a3.23,3.23,0,0,1-1.37-3.33h0a1.57,1.57,0,0,1,2.4-1.15l5.59,3.23a3.19,3.19,0,0,1,1.37,3.33h0A1.56,1.56,0,0,1,319.14,123.22Z"/><path class="cls-5" d="M340.89,135.78l-14.74-8.51a3.22,3.22,0,0,1-1.37-3.32h0a1.56,1.56,0,0,1,2.4-1.15l14.74,8.51a3.18,3.18,0,0,1,1.37,3.32h0A1.56,1.56,0,0,1,340.89,135.78Z"/><path class="cls-5" d="M322,135.48l-10.6-6.12A3.2,3.2,0,0,1,310,126h0a1.56,1.56,0,0,1,2.4-1.15L323,131a3.23,3.23,0,0,1,1.37,3.33h0A1.56,1.56,0,0,1,322,135.48Z"/><path class="cls-5" d="M383.41,160.37l-6.81-3.93a3.22,3.22,0,0,1-1.37-3.32h0a1.57,1.57,0,0,1,2.41-1.15l6.8,3.93a3.21,3.21,0,0,1,1.37,3.33h0A1.56,1.56,0,0,1,383.41,160.37Z"/><path class="cls-5" d="M355.3,101.63,336.57,90.82a3.23,3.23,0,0,1-1.37-3.33h0a1.56,1.56,0,0,1,2.4-1.14l18.74,10.81a3.23,3.23,0,0,1,1.37,3.33h0A1.57,1.57,0,0,1,355.3,101.63Z"/><path class="cls-5" d="M357,92,324.37,73.15A3.18,3.18,0,0,1,323,69.83h0a1.56,1.56,0,0,1,2.4-1.15L358,87.53a3.18,3.18,0,0,1,1.37,3.32h0A1.56,1.56,0,0,1,357,92Z"/><path class="cls-5" d="M338.77,102.7,320,91.89a3.21,3.21,0,0,1-1.37-3.33h0a1.56,1.56,0,0,1,2.4-1.14L339.8,98.23a3.19,3.19,0,0,1,1.37,3.33h0A1.56,1.56,0,0,1,338.77,102.7Z"/><path class="cls-5" d="M369.51,109.84l-6.8-3.93a3.2,3.2,0,0,1-1.37-3.33h0a1.56,1.56,0,0,1,2.4-1.15l6.8,3.93a3.2,3.2,0,0,1,1.37,3.33h0A1.56,1.56,0,0,1,369.51,109.84Z"/><path class="cls-5" d="M436.69,106.15l-40.3-23.27A3.21,3.21,0,0,1,395,79.56h0a1.57,1.57,0,0,1,2.4-1.15l40.31,23.27A3.23,3.23,0,0,1,439.1,105h0A1.56,1.56,0,0,1,436.69,106.15Z"/><path class="cls-5" d="M338.23,123.63l-22.52-13a3.23,3.23,0,0,1-1.37-3.33h0a1.57,1.57,0,0,1,2.41-1.14l22.51,13a3.18,3.18,0,0,1,1.37,3.32h0A1.56,1.56,0,0,1,338.23,123.63Z"/><path class="cls-5" d="M338,49.2l-16.55-9.56a3.22,3.22,0,0,1-1.37-3.32h0a1.56,1.56,0,0,1,2.4-1.15l16.56,9.56a3.22,3.22,0,0,1,1.37,3.32h0A1.57,1.57,0,0,1,338,49.2Z"/><path class="cls-5" d="M319,144.4l-19.18-11.07a3.23,3.23,0,0,1-1.37-3.33h0a1.56,1.56,0,0,1,2.41-1.14l19.17,11.07a3.22,3.22,0,0,1,1.37,3.32h0A1.56,1.56,0,0,1,319,144.4Z"/><path class="cls-5" d="M448.79,184.81l-11.23-6.48a3.23,3.23,0,0,1-1.37-3.33h0a1.57,1.57,0,0,1,2.4-1.15l11.23,6.49a3.2,3.2,0,0,1,1.37,3.32h0A1.56,1.56,0,0,1,448.79,184.81Z"/><path class="cls-5" d="M456.86,147l-21.43-12.38a3.2,3.2,0,0,1-1.37-3.32h0a1.56,1.56,0,0,1,2.4-1.15l21.43,12.37a3.23,3.23,0,0,1,1.37,3.33h0A1.57,1.57,0,0,1,456.86,147Z"/><path class="cls-5" d="M438.12,157.41l-7-4a3.22,3.22,0,0,1-1.37-3.32h0a1.56,1.56,0,0,1,2.4-1.15l7,4.05a3.22,3.22,0,0,1,1.37,3.32h0A1.56,1.56,0,0,1,438.12,157.41Z"/><path class="cls-5" d="M431.28,174.7l-4.5-2.6a3.21,3.21,0,0,1-1.37-3.33h0a1.56,1.56,0,0,1,2.4-1.14l4.5,2.6a3.2,3.2,0,0,1,1.37,3.32h0A1.56,1.56,0,0,1,431.28,174.7Z"/><path class="cls-5" d="M464.2,172.47l-18.73-10.81a3.23,3.23,0,0,1-1.37-3.33h0a1.56,1.56,0,0,1,2.4-1.14L465.24,168a3.23,3.23,0,0,1,1.37,3.33h0A1.57,1.57,0,0,1,464.2,172.47Z"/><path class="cls-5" d="M465.91,162.84,433.27,144a3.18,3.18,0,0,1-1.37-3.32h0a1.56,1.56,0,0,1,2.4-1.15L467,158.37a3.22,3.22,0,0,1,1.37,3.32h0A1.57,1.57,0,0,1,465.91,162.84Z"/><path class="cls-5" d="M447.67,173.54l-18.73-10.81a3.22,3.22,0,0,1-1.37-3.32h0a1.56,1.56,0,0,1,2.4-1.15l18.73,10.81a3.19,3.19,0,0,1,1.37,3.33h0A1.56,1.56,0,0,1,447.67,173.54Z"/><path class="cls-5" d="M447.13,194.47l-22.52-13a3.23,3.23,0,0,1-1.37-3.33h0a1.57,1.57,0,0,1,2.41-1.14l22.51,13a3.18,3.18,0,0,1,1.37,3.32h0A1.56,1.56,0,0,1,447.13,194.47Z"/><path class="cls-1" d="M108.49,254.76l51.71-29.49c1.89-1.09,1.65-3-.53-4.26l-29.75-17.17a8.21,8.21,0,0,0-7.38-.31L70.83,233c-1.89,1.09-1.65,3,.53,4.25l29.75,17.18A8.21,8.21,0,0,0,108.49,254.76Z"/><path class="cls-1" d="M186.4,295.76l51.71-29.48c1.89-1.1,1.65-3-.53-4.26l-29.75-17.18a8.21,8.21,0,0,0-7.38-.31L148.74,274c-1.89,1.09-1.65,3,.53,4.26L179,295.45A8.21,8.21,0,0,0,186.4,295.76Z"/><path class="cls-1" d="M19.93,194.8.79,183.75c-1.17-.68-1-1.86.33-2.65L19.6,170.44a5.06,5.06,0,0,1,4.58-.19l19.14,11c1.17.68,1,1.87-.33,2.65L24.51,194.61A5.12,5.12,0,0,1,19.93,194.8Z"/><path class="cls-8" d="M44.1,173.66h0v-6.6H29.3l-5.12-3a5.09,5.09,0,0,0-4.58.19L14.82,167H0v6.79a1.32,1.32,0,0,0,.78,1.23l19.14,11a5.12,5.12,0,0,0,4.58-.19L43,175.24C43.77,174.79,44.15,174.2,44.1,173.66Z"/><path class="cls-7" d="M1.68,167H0v6.79a1.32,1.32,0,0,0,.78,1.23l.89.51Z"/><path class="cls-7" d="M20.22,186.24a5.27,5.27,0,0,0,3.67,0v-7.71H20.22Z"/><path class="cls-5" d="M19.93,179.33.79,168.28c-1.17-.68-1-1.86.33-2.64L19.6,155a5.09,5.09,0,0,1,4.58-.19l19.14,11.05c1.17.68,1,1.86-.33,2.64L24.51,179.14A5.09,5.09,0,0,1,19.93,179.33Z"/><path class="cls-6" d="M43,167.17,24.51,177.84a5.09,5.09,0,0,1-4.58.19L.79,167a1.75,1.75,0,0,1-.58-.52,1.23,1.23,0,0,0,.58,1.82l19.14,11.05a5.09,5.09,0,0,0,4.58-.19L43,168.47c1-.61,1.37-1.46.91-2.12A2.55,2.55,0,0,1,43,167.17Z"/><path class="cls-5" d="M37.06,175.4a1.71,1.71,0,0,1-.77,1.34c-.43.25-.77,0-.77-.45a1.71,1.71,0,0,1,.77-1.34C36.72,174.71,37.06,174.91,37.06,175.4Z"/><path class="cls-5" d="M39.55,174a1.71,1.71,0,0,1-.77,1.34c-.43.25-.77,0-.77-.44a1.68,1.68,0,0,1,.77-1.34C39.2,173.27,39.55,173.47,39.55,174Z"/><path class="cls-5" d="M42,172.53a1.72,1.72,0,0,1-.78,1.34c-.42.24-.77,0-.77-.45a1.74,1.74,0,0,1,.77-1.34C41.69,171.84,42,172,42,172.53Z"/><path class="cls-9" d="M21.06,172.48l-8.95-5.17c-.55-.32-.49-.87.15-1.24l8.65-5a2.39,2.39,0,0,1,2.14-.09l9,5.17c.55.32.48.87-.15,1.24l-8.65,5A2.35,2.35,0,0,1,21.06,172.48Z"/><path class="cls-5" d="M21.92,168.15l-1.24-.71c-.08-.05-.07-.12,0-.17l1.2-.69a.3.3,0,0,1,.29,0l1.24.72c.08,0,.07.12,0,.17l-1.2.69A.3.3,0,0,1,21.92,168.15Z"/><path class="cls-2" d="M12.11,167.31l0,0,.13-.09,8.65-5a2.35,2.35,0,0,1,2.14-.09L32,167.31c.51-.36.53-.85,0-1.15L23.05,161a2.39,2.39,0,0,0-2.14.09l-8.65,5C11.62,166.44,11.56,167,12.11,167.31Z"/><path class="cls-1" d="M116.67,51,97.21,39.74c-1.2-.69-1-1.9.33-2.69l18.8-10.86A5.2,5.2,0,0,1,121,26l19.46,11.24c1.2.69,1,1.89-.33,2.69l-18.8,10.85A5.17,5.17,0,0,1,116.67,51Z"/><path class="cls-8" d="M141.26,29.47h0V22.76H126.2l-5.2-3a5.17,5.17,0,0,0-4.66.2l-4.86,2.8H96.41v6.91a1.33,1.33,0,0,0,.8,1.25l19.46,11.24a5.17,5.17,0,0,0,4.66-.2l18.8-10.85C140.92,30.62,141.31,30,141.26,29.47Z"/><path class="cls-7" d="M98.11,22.73h-1.7v6.91a1.33,1.33,0,0,0,.8,1.25l.9.52Z"/><path class="cls-7" d="M117,42.27a5.33,5.33,0,0,0,3.73,0V34.39H117Z"/><path class="cls-5" d="M116.67,35.24,97.21,24c-1.2-.68-1-1.89.33-2.69l18.8-10.85a5.2,5.2,0,0,1,4.66-.19l19.46,11.24c1.2.69,1,1.89-.33,2.69l-18.8,10.85A5.17,5.17,0,0,1,116.67,35.24Z"/><path class="cls-6" d="M140.13,22.88l-18.8,10.85a5.2,5.2,0,0,1-4.66.19L97.21,22.68a1.66,1.66,0,0,1-.6-.53,1.25,1.25,0,0,0,.6,1.85l19.46,11.24a5.17,5.17,0,0,0,4.66-.19l18.8-10.85c1.07-.62,1.4-1.48.93-2.16A2.66,2.66,0,0,1,140.13,22.88Z"/><path class="cls-5" d="M134.1,31.25a1.74,1.74,0,0,1-.78,1.36c-.44.25-.79,0-.79-.46a1.72,1.72,0,0,1,.79-1.36C133.75,30.54,134.1,30.74,134.1,31.25Z"/><path class="cls-5" d="M136.63,29.78a1.74,1.74,0,0,1-.78,1.37c-.44.25-.79,0-.79-.46a1.72,1.72,0,0,1,.79-1.36C136.28,29.08,136.63,29.28,136.63,29.78Z"/><path class="cls-5" d="M139.16,28.32a1.74,1.74,0,0,1-.78,1.37c-.44.25-.79,0-.79-.46a1.72,1.72,0,0,1,.79-1.36C138.81,27.62,139.16,27.82,139.16,28.32Z"/><path class="cls-9" d="M117.82,28.28,108.71,23c-.56-.33-.49-.89.16-1.26l8.8-5.08a2.44,2.44,0,0,1,2.18-.09L129,21.85c.55.32.48.88-.16,1.26L120,28.19A2.44,2.44,0,0,1,117.82,28.28Z"/><path class="cls-5" d="M118.69,23.87l-1.26-.73c-.07,0-.06-.12,0-.17l1.21-.7a.32.32,0,0,1,.3,0l1.27.72c.07.05.06.13,0,.18l-1.21.7A.34.34,0,0,1,118.69,23.87Z"/><path class="cls-2" d="M108.71,23h0l.13-.09,8.8-5.08a2.44,2.44,0,0,1,2.18-.09L128.93,23c.52-.37.54-.87,0-1.17l-9.11-5.26a2.44,2.44,0,0,0-2.18.09l-8.8,5.08C108.22,22.13,108.15,22.69,108.71,23Z"/><path class="cls-10" d="M166.19,157h0V44.47l44.74-11.71L219.17,28a8.19,8.19,0,0,1,7.37.3l7.69,4.44h23.86L251,141.36a2.15,2.15,0,0,1-1.27,2L205.12,177a8.21,8.21,0,0,1-7.38-.3L168,159.54C166.73,158.81,166.12,157.87,166.19,157Z"/><path class="cls-5" d="M222.59,27.28a8.5,8.5,0,0,1,3.95,1l7.69,4.44h23.86V145.56a2.14,2.14,0,0,1-1.27,2L205.12,177a6.56,6.56,0,0,1-3.43.73l-.53-113.53Z"/><path class="cls-7" d="M204.64,177.26a8.42,8.42,0,0,1-5.89-.07V62.88h5.89Z"/><path class="cls-5" d="M205.12,64.24l51.7-29.49c1.89-1.09,1.66-3-.53-4.26L226.54,13.32a8.19,8.19,0,0,0-7.37-.31L167.46,42.5c-1.89,1.09-1.65,3,.53,4.25l29.75,17.18A8.21,8.21,0,0,0,205.12,64.24Z"/><path class="cls-11" d="M168,44.66l29.75,17.18a8.21,8.21,0,0,0,7.38.31l51.7-29.49a2.82,2.82,0,0,0,.95-.84c.65,1,.35,2.18-.95,2.93l-51.7,29.49a8.21,8.21,0,0,1-7.38-.31L168,46.75c-1.7-1-2.21-2.34-1.47-3.42A4,4,0,0,0,168,44.66Z"/><path class="cls-2" d="M203.65,52.29l34.43-20c.88-.51.77-1.4-.25-2l-13.92-8a3.83,3.83,0,0,0-3.45-.14L186,42.11c-.88.51-.77,1.41.25,2l13.92,8A3.84,3.84,0,0,0,203.65,52.29Z"/><path class="cls-5" d="M222.24,33.23l2-1.15c.13-.07.11-.2,0-.28l-1.93-1.11a.52.52,0,0,0-.47,0l-2,1.15c-.12.07-.11.2,0,.28l1.92,1.11A.54.54,0,0,0,222.24,33.23Z"/><path class="cls-5" d="M215.58,37.06l2-1.15c.12-.07.11-.19,0-.28l-1.93-1.11a.54.54,0,0,0-.48,0l-2,1.15c-.12.07-.11.2,0,.28L215.1,37A.54.54,0,0,0,215.58,37.06Z"/><path class="cls-5" d="M208.91,40.89l2-1.15c.12-.07.1-.19,0-.27L209,38.35a.54.54,0,0,0-.48,0l-2,1.16c-.12.07-.1.19,0,.27l1.92,1.11A.51.51,0,0,0,208.91,40.89Z"/><path class="cls-5" d="M202.25,44.73l2-1.16c.12-.07.11-.19,0-.27l-1.93-1.11a.51.51,0,0,0-.48,0l-2,1.15c-.12.07-.11.19,0,.27l1.93,1.12A.54.54,0,0,0,202.25,44.73Z"/><path class="cls-7" d="M238.08,32.33l0,0-.21-.15-13.92-8a3.84,3.84,0,0,0-3.45-.15L186.07,44c-.81-.58-.85-1.37,0-1.85l34.43-19.95a3.83,3.83,0,0,1,3.45.14l13.92,8C238.85,30.93,239,31.82,238.08,32.33Z"/><path class="cls-8" d="M191.93,86.53,172.36,75.32a4.77,4.77,0,0,1-2-3.81v-7c0-1.46.9-2.14,2-1.5l19.57,11.2a4.79,4.79,0,0,1,2,3.81v7C193.93,86.49,193,87.17,191.93,86.53Z"/><path class="cls-12" d="M171.39,62.8a1.93,1.93,0,0,0-.5,1.45v7a4.76,4.76,0,0,0,2,3.81l19.58,11.21a1.44,1.44,0,0,0,1,.21,1.18,1.18,0,0,1-1.49,0L172.36,75.32a4.77,4.77,0,0,1-2-3.81v-7C170.36,63.52,170.78,62.9,171.39,62.8Z"/><path class="cls-3" d="M186,78.93l-1.79-1a1,1,0,0,1-.44-.83V75.14c0-.32.2-.47.44-.33l1.79,1a1,1,0,0,1,.44.83V78.6C186.48,78.92,186.28,79.07,186,78.93Z"/><path class="cls-6" d="M180,75.46l-1.79-1a1,1,0,0,1-.44-.83V71.68c0-.32.2-.47.44-.33l1.79,1a1,1,0,0,1,.44.83v1.92C180.48,75.45,180.28,75.6,180,75.46Z"/><path class="cls-8" d="M191.93,137.11,172.36,125.9a4.77,4.77,0,0,1-2-3.81v-7c0-1.47.9-2.14,2-1.5l19.57,11.2a4.79,4.79,0,0,1,2,3.81v7C193.93,137.07,193,137.75,191.93,137.11Z"/><path class="cls-12" d="M171.39,113.37a2,2,0,0,0-.5,1.46v7a4.78,4.78,0,0,0,2,3.81l19.58,11.21a1.44,1.44,0,0,0,1,.21,1.2,1.2,0,0,1-1.49.05L172.36,125.9a4.77,4.77,0,0,1-2-3.81v-7C170.36,114.1,170.78,113.48,171.39,113.37Z"/><path class="cls-3" d="M186,129.51l-1.79-1a1,1,0,0,1-.44-.83v-1.92c0-.32.2-.47.44-.33l1.79,1a1,1,0,0,1,.44.83v1.92C186.48,129.5,186.28,129.64,186,129.51Z"/><path class="cls-6" d="M180,126l-1.79-1a1,1,0,0,1-.44-.83v-1.92c0-.32.2-.46.44-.32l1.79,1a1,1,0,0,1,.44.83v1.92C180.48,126,180.28,126.18,180,126Z"/><path class="cls-2" d="M191.93,162.4l-19.57-11.21a4.77,4.77,0,0,1-2-3.81v-7c0-1.47.9-2.14,2-1.51l19.57,11.21a4.79,4.79,0,0,1,2,3.81v7C193.93,162.36,193,163,191.93,162.4Z"/><path class="cls-6" d="M171.39,138.66a2,2,0,0,0-.5,1.46v7a4.78,4.78,0,0,0,2,3.81l19.58,11.21a1.44,1.44,0,0,0,1,.21,1.2,1.2,0,0,1-1.49.05l-19.57-11.21a4.77,4.77,0,0,1-2-3.81v-7C170.36,139.39,170.78,138.77,171.39,138.66Z"/><path class="cls-3" d="M186,154.8l-1.79-1a1,1,0,0,1-.44-.83V151c0-.32.2-.47.44-.33l1.79,1a1,1,0,0,1,.44.83v1.92C186.48,154.79,186.28,154.93,186,154.8Z"/><path class="cls-6" d="M180,151.33l-1.79-1a1,1,0,0,1-.44-.83v-1.92c0-.32.2-.46.44-.32l1.79,1a1,1,0,0,1,.44.83V151C180.48,151.32,180.28,151.47,180,151.33Z"/><path class="cls-8" d="M191.93,111.82l-19.57-11.21a4.77,4.77,0,0,1-2-3.81v-7c0-1.46.9-2.14,2-1.5l19.57,11.2a4.79,4.79,0,0,1,2,3.81v7C193.93,111.78,193,112.46,191.93,111.82Z"/><path class="cls-12" d="M171.39,88.09a1.93,1.93,0,0,0-.5,1.45v7a4.76,4.76,0,0,0,2,3.81l19.58,11.21a1.44,1.44,0,0,0,1,.21,1.18,1.18,0,0,1-1.49,0l-19.57-11.21a4.77,4.77,0,0,1-2-3.81v-7C170.36,88.81,170.78,88.19,171.39,88.09Z"/><path class="cls-3" d="M186,104.22l-1.79-1a1,1,0,0,1-.44-.83v-1.92c0-.32.2-.47.44-.33l1.79,1a1,1,0,0,1,.44.83v1.92C186.48,104.21,186.28,104.36,186,104.22Z"/><path class="cls-6" d="M180,100.75l-1.79-1a1,1,0,0,1-.44-.83V97c0-.32.2-.47.44-.33l1.79,1a1,1,0,0,1,.44.83v1.92C180.48,100.74,180.28,100.89,180,100.75Z"/><path class="cls-7" d="M208.88,79.37,254,53.29a4.36,4.36,0,0,0,1.83-3.49V41.19c0-1.35-.82-2-1.83-1.39L208.88,65.87a4.4,4.4,0,0,0-1.83,3.5V78C207.05,79.33,207.87,80,208.88,79.37Z"/><path class="cls-13" d="M210.18,76.35l42.56-24.58a2.19,2.19,0,0,0,.93-1.77V43.52c0-.68-.41-1-.93-.7L210.18,67.4a2.22,2.22,0,0,0-.93,1.77v6.47C209.25,76.33,209.67,76.64,210.18,76.35Z"/><path class="cls-5" d="M243.87,53.62,250.23,50a2.17,2.17,0,0,0,.9-1.72h0c0-.66-.41-1-.9-.68l-6.36,3.67a2.17,2.17,0,0,0-.9,1.72h0C243,53.6,243.38,53.91,243.87,53.62Z"/><path class="cls-8" d="M238.46,55.54c0,.67.47.94,1,.61a2.3,2.3,0,0,0,1-1.81c0-.66-.46-.93-1-.6A2.31,2.31,0,0,0,238.46,55.54Z"/><path class="cls-8" d="M234.79,57.66c0,.67.46.94,1,.61a2.33,2.33,0,0,0,1-1.81c0-.66-.47-.93-1-.6A2.28,2.28,0,0,0,234.79,57.66Z"/><path class="cls-5" d="M231.11,59.79c0,.66.47.93,1,.6a2.33,2.33,0,0,0,1-1.81c0-.66-.47-.93-1-.6A2.3,2.3,0,0,0,231.11,59.79Z"/><path class="cls-8" d="M227.44,61.91c0,.66.47.93,1,.6a2.3,2.3,0,0,0,1-1.81c0-.66-.46-.93-1-.6A2.31,2.31,0,0,0,227.44,61.91Z"/><path class="cls-8" d="M212,72.74l2.14-1.23a1.4,1.4,0,0,0,.58-1.11V68.14c0-.43-.26-.63-.58-.44L212,68.93a1.4,1.4,0,0,0-.58,1.11V72.3C211.39,72.73,211.65,72.93,212,72.74Z"/><path class="cls-7" d="M208.88,94.55,254,68.48a4.4,4.4,0,0,0,1.83-3.5V56.37c0-1.35-.82-2-1.83-1.38L208.88,81.06a4.38,4.38,0,0,0-1.83,3.5v8.61C207.05,94.51,207.87,95.13,208.88,94.55Z"/><path class="cls-13" d="M210.18,91.53,252.74,67a2.21,2.21,0,0,0,.93-1.78V58.71c0-.68-.41-1-.93-.7L210.18,82.58a2.24,2.24,0,0,0-.93,1.77v6.48C209.25,91.51,209.67,91.83,210.18,91.53Z"/><path class="cls-5" d="M243.87,68.8l6.36-3.66a2.19,2.19,0,0,0,.9-1.73h0c0-.66-.41-1-.9-.68l-6.36,3.67a2.18,2.18,0,0,0-.9,1.72h0C243,68.79,243.38,69.09,243.87,68.8Z"/><path class="cls-6" d="M238.46,70.73c0,.66.47.93,1,.6a2.28,2.28,0,0,0,1-1.8c0-.67-.46-.94-1-.61A2.33,2.33,0,0,0,238.46,70.73Z"/><path class="cls-8" d="M234.79,72.85c0,.66.46.93,1,.6a2.31,2.31,0,0,0,1-1.8c0-.67-.47-.94-1-.6A2.27,2.27,0,0,0,234.79,72.85Z"/><path class="cls-5" d="M231.11,75c0,.66.47.93,1,.6a2.31,2.31,0,0,0,1-1.8c0-.67-.47-.94-1-.6A2.28,2.28,0,0,0,231.11,75Z"/><path class="cls-8" d="M227.44,77.09c0,.66.47.93,1,.6a2.28,2.28,0,0,0,1-1.8c0-.67-.46-.94-1-.6A2.31,2.31,0,0,0,227.44,77.09Z"/><path class="cls-8" d="M212,87.93l2.14-1.24a1.38,1.38,0,0,0,.58-1.11V83.32c0-.43-.26-.62-.58-.44L212,84.12a1.38,1.38,0,0,0-.58,1.1v2.27C211.39,87.91,211.65,88.11,212,87.93Z"/><path class="cls-7" d="M208.88,109.73,254,83.66a4.38,4.38,0,0,0,1.83-3.49V71.56c0-1.35-.82-2-1.83-1.39L208.88,96.24a4.4,4.4,0,0,0-1.83,3.5v8.61C207.05,109.7,207.87,110.32,208.88,109.73Z"/><path class="cls-13" d="M210.18,106.71l42.56-24.57a2.21,2.21,0,0,0,.93-1.77V73.89c0-.68-.41-1-.93-.7L210.18,97.76a2.26,2.26,0,0,0-.93,1.78V106C209.25,106.7,209.67,107,210.18,106.71Z"/><path class="cls-5" d="M243.87,84l6.36-3.67a2.18,2.18,0,0,0,.9-1.72h0c0-.67-.41-1-.9-.68l-6.36,3.66a2.19,2.19,0,0,0-.9,1.73h0C243,84,243.38,84.28,243.87,84Z"/><path class="cls-6" d="M238.46,85.91c0,.67.47.93,1,.6a2.28,2.28,0,0,0,1-1.8c0-.66-.46-.93-1-.6A2.31,2.31,0,0,0,238.46,85.91Z"/><path class="cls-8" d="M234.79,88c0,.67.46.94,1,.6a2.31,2.31,0,0,0,1-1.8c0-.66-.47-.93-1-.6A2.28,2.28,0,0,0,234.79,88Z"/><path class="cls-5" d="M231.11,90.15c0,.67.47.94,1,.6a2.31,2.31,0,0,0,1-1.8c0-.66-.47-.93-1-.6A2.29,2.29,0,0,0,231.11,90.15Z"/><path class="cls-8" d="M227.44,92.27c0,.67.47.94,1,.6a2.28,2.28,0,0,0,1-1.8c0-.66-.46-.93-1-.6A2.31,2.31,0,0,0,227.44,92.27Z"/><path class="cls-8" d="M212,103.11l2.14-1.24a1.38,1.38,0,0,0,.58-1.1V98.5c0-.42-.26-.62-.58-.43L212,99.3a1.4,1.4,0,0,0-.58,1.11v2.26C211.39,103.1,211.65,103.29,212,103.11Z"/><path class="cls-7" d="M208.88,124.92,254,98.85a4.4,4.4,0,0,0,1.83-3.5V86.74c0-1.35-.82-2-1.83-1.38l-45.16,26.07a4.38,4.38,0,0,0-1.83,3.49v8.61C207.05,124.88,207.87,125.5,208.88,124.92Z"/><path class="cls-13" d="M210.18,121.9l42.56-24.58a2.19,2.19,0,0,0,.93-1.77V89.08c0-.69-.41-1-.93-.71L210.18,113a2.22,2.22,0,0,0-.93,1.77v6.48C209.25,121.88,209.67,122.19,210.18,121.9Z"/><path class="cls-5" d="M243.87,99.17l6.36-3.66a2.19,2.19,0,0,0,.9-1.73h0c0-.66-.41-1-.9-.68l-6.36,3.67a2.18,2.18,0,0,0-.9,1.72h0C243,99.15,243.38,99.46,243.87,99.17Z"/><path class="cls-8" d="M238.46,101.1c0,.66.47.93,1,.6a2.3,2.3,0,0,0,1-1.81c0-.66-.46-.93-1-.6A2.31,2.31,0,0,0,238.46,101.1Z"/><path class="cls-8" d="M234.79,103.22c0,.66.46.93,1,.6a2.31,2.31,0,0,0,1-1.81c0-.66-.47-.93-1-.6A2.29,2.29,0,0,0,234.79,103.22Z"/><path class="cls-5" d="M231.11,105.34c0,.66.47.93,1,.6a2.31,2.31,0,0,0,1-1.81c0-.66-.47-.93-1-.6A2.31,2.31,0,0,0,231.11,105.34Z"/><path class="cls-8" d="M227.44,107.46c0,.66.47.93,1,.6a2.29,2.29,0,0,0,1-1.81c0-.66-.46-.93-1-.6A2.33,2.33,0,0,0,227.44,107.46Z"/><path class="cls-5" d="M212,118.29l2.14-1.23a1.4,1.4,0,0,0,.58-1.11v-2.26c0-.43-.26-.62-.58-.44L212,114.49a1.38,1.38,0,0,0-.58,1.1v2.27C211.39,118.28,211.65,118.48,212,118.29Z"/><path class="cls-7" d="M208.88,140.1,254,114a4.38,4.38,0,0,0,1.83-3.5v-8.61c0-1.34-.82-2-1.83-1.38l-45.16,26.07a4.38,4.38,0,0,0-1.83,3.5v8.61C207.05,140.06,207.87,140.68,208.88,140.1Z"/><path class="cls-13" d="M210.18,137.08l42.56-24.57a2.21,2.21,0,0,0,.93-1.78v-6.47c0-.68-.41-1-.93-.7l-42.56,24.57a2.24,2.24,0,0,0-.93,1.78v6.47C209.25,137.06,209.67,137.38,210.18,137.08Z"/><path class="cls-5" d="M243.87,114.36l6.36-3.67a2.18,2.18,0,0,0,.9-1.72h0c0-.67-.41-1-.9-.69L243.87,112a2.18,2.18,0,0,0-.9,1.72h0C243,114.34,243.38,114.64,243.87,114.36Z"/><path class="cls-8" d="M238.46,116.28c0,.66.47.93,1,.6a2.28,2.28,0,0,0,1-1.8c0-.67-.46-.94-1-.6A2.31,2.31,0,0,0,238.46,116.28Z"/><path class="cls-6" d="M234.79,118.4c0,.66.46.93,1,.6a2.31,2.31,0,0,0,1-1.8c0-.67-.47-.94-1-.6A2.28,2.28,0,0,0,234.79,118.4Z"/><path class="cls-5" d="M231.11,120.52c0,.66.47.93,1,.6a2.31,2.31,0,0,0,1-1.8c0-.67-.47-.93-1-.6A2.29,2.29,0,0,0,231.11,120.52Z"/><path class="cls-6" d="M227.44,122.64c0,.66.47.93,1,.6a2.28,2.28,0,0,0,1-1.8c0-.67-.46-.93-1-.6A2.31,2.31,0,0,0,227.44,122.64Z"/><path class="cls-5" d="M212,133.48l2.14-1.24a1.38,1.38,0,0,0,.58-1.1v-2.27c0-.42-.26-.62-.58-.44L212,129.67a1.38,1.38,0,0,0-.58,1.11V133C211.39,133.47,211.65,133.66,212,133.48Z"/><path class="cls-7" d="M208.88,155.28,254,129.21a4.38,4.38,0,0,0,1.83-3.49v-8.61c0-1.35-.82-2-1.83-1.39l-45.16,26.07a4.4,4.4,0,0,0-1.83,3.5v8.61C207.05,155.25,207.87,155.87,208.88,155.28Z"/><path class="cls-13" d="M210.18,152.27l42.56-24.58a2.19,2.19,0,0,0,.93-1.77v-6.48c0-.68-.41-1-.93-.7l-42.56,24.58a2.22,2.22,0,0,0-.93,1.77v6.47C209.25,152.25,209.67,152.56,210.18,152.27Z"/><path class="cls-5" d="M243.87,129.54l6.36-3.67a2.17,2.17,0,0,0,.9-1.72h0c0-.66-.41-1-.9-.68l-6.36,3.67a2.15,2.15,0,0,0-.9,1.72h0C243,129.52,243.38,129.83,243.87,129.54Z"/><path class="cls-8" d="M238.46,131.46c0,.67.47.94,1,.6a2.28,2.28,0,0,0,1-1.8c0-.66-.46-.93-1-.6A2.31,2.31,0,0,0,238.46,131.46Z"/><path class="cls-8" d="M234.79,133.58c0,.67.46.94,1,.6a2.3,2.3,0,0,0,1-1.8c0-.66-.47-.93-1-.6A2.28,2.28,0,0,0,234.79,133.58Z"/><path class="cls-5" d="M231.11,135.7c0,.67.47.94,1,.61a2.33,2.33,0,0,0,1-1.81c0-.66-.47-.93-1-.6A2.29,2.29,0,0,0,231.11,135.7Z"/><path class="cls-2" d="M227.44,137.82c0,.67.47.94,1,.61a2.3,2.3,0,0,0,1-1.81c0-.66-.46-.93-1-.6A2.31,2.31,0,0,0,227.44,137.82Z"/><path class="cls-2" d="M212,148.66l2.14-1.23a1.4,1.4,0,0,0,.58-1.11v-2.26c0-.43-.26-.63-.58-.44L212,144.85a1.4,1.4,0,0,0-.58,1.11v2.26C211.39,148.65,211.65,148.85,212,148.66Z"/><path class="cls-7" d="M208.88,170.47,254,144.4a4.4,4.4,0,0,0,1.83-3.5v-8.61c0-1.35-.82-2-1.83-1.38L208.88,157a4.38,4.38,0,0,0-1.83,3.49v8.61C207.05,170.43,207.87,171.05,208.88,170.47Z"/><path class="cls-13" d="M210.18,167.45l42.56-24.57a2.23,2.23,0,0,0,.93-1.78v-6.47c0-.69-.41-1-.93-.7L210.18,158.5a2.24,2.24,0,0,0-.93,1.77v6.48C209.25,167.43,209.67,167.75,210.18,167.45Z"/><path class="cls-5" d="M243.87,144.72l6.36-3.66a2.19,2.19,0,0,0,.9-1.73h0c0-.66-.41-1-.9-.68l-6.36,3.67A2.18,2.18,0,0,0,243,144h0C243,144.71,243.38,145,243.87,144.72Z"/><path class="cls-6" d="M237.3,147.47c0,1.25.88,1.76,2,1.13a4.34,4.34,0,0,0,2-3.4c0-1.26-.88-1.76-2-1.14A4.34,4.34,0,0,0,237.3,147.47Z"/><path class="cls-2" d="M229.69,151.92c0,.66.47.93,1,.6a2.28,2.28,0,0,0,1-1.8c0-.67-.46-.93-1-.6A2.31,2.31,0,0,0,229.69,151.92Z"/><path class="cls-5" d="M226,154c0,.66.47.93,1,.6a2.28,2.28,0,0,0,1-1.8c0-.67-.46-.93-1-.6A2.31,2.31,0,0,0,226,154Z"/><path class="cls-2" d="M222.35,156.16c0,.67.46.93,1,.6a2.31,2.31,0,0,0,1-1.8c0-.66-.47-.93-1-.6A2.28,2.28,0,0,0,222.35,156.16Z"/><path class="cls-5" d="M212,163.84l2.14-1.23a1.4,1.4,0,0,0,.58-1.11v-2.26c0-.43-.26-.62-.58-.44L212,160a1.38,1.38,0,0,0-.58,1.1v2.27C211.39,163.83,211.65,164,212,163.84Z"/><path class="cls-10" d="M65.31,222.67h0V110.15L110,98.44l8.24-4.76a8.21,8.21,0,0,1,7.38.31l7.69,4.43h23.86L150.14,207a2.14,2.14,0,0,1-1.27,2L104.23,242.7a8.19,8.19,0,0,1-7.37-.31L67.11,225.21A2.92,2.92,0,0,1,65.31,222.67Z"/><path class="cls-5" d="M121.7,93a8.43,8.43,0,0,1,4,1l7.69,4.43h23.86V211.24a2.13,2.13,0,0,1-1.27,2L104.23,242.7a6.72,6.72,0,0,1-3.42.73l-.53-113.53Z"/><path class="cls-7" d="M103.76,242.93a8.39,8.39,0,0,1-5.9-.07V128.56h5.9Z"/><path class="cls-5" d="M104.23,129.91l51.71-29.48c1.89-1.09,1.65-3-.53-4.26L125.66,79a8.18,8.18,0,0,0-7.38-.3l-51.7,29.48c-1.9,1.09-1.66,3,.53,4.26L96.86,129.6A8.16,8.16,0,0,0,104.23,129.91Z"/><path class="cls-11" d="M67.11,110.34l29.75,17.17a8.19,8.19,0,0,0,7.37.31l51.71-29.49a2.76,2.76,0,0,0,.94-.83,2,2,0,0,1-.94,2.93l-51.71,29.48a8.19,8.19,0,0,1-7.37-.31L67.11,112.43c-1.7-1-2.22-2.35-1.48-3.42A4.24,4.24,0,0,0,67.11,110.34Z"/><path class="cls-2" d="M102.77,118,137.2,98c.88-.51.77-1.41-.25-2L123,88a3.86,3.86,0,0,0-3.46-.15l-34.42,20c-.89.51-.78,1.4.25,2l13.92,8A3.83,3.83,0,0,0,102.77,118Z"/><path class="cls-5" d="M121.36,98.9l2-1.15c.12-.07.11-.19,0-.28l-1.93-1.11a.54.54,0,0,0-.48,0l-2,1.15c-.13.08-.11.2,0,.28l1.93,1.11A.54.54,0,0,0,121.36,98.9Z"/><path class="cls-5" d="M114.69,102.73l2-1.15c.12-.07.1-.19,0-.27l-1.92-1.12a.51.51,0,0,0-.48,0l-2,1.15c-.12.07-.1.19,0,.27l1.92,1.11A.49.49,0,0,0,114.69,102.73Z"/><path class="cls-5" d="M108,106.57l2-1.16c.12-.07.11-.19,0-.27L108.06,104a.54.54,0,0,0-.48,0l-2,1.15c-.12.07-.11.19,0,.27l1.93,1.12A.54.54,0,0,0,108,106.57Z"/><path class="cls-5" d="M101.36,110.4l2-1.15c.12-.07.1-.2,0-.28l-1.92-1.11a.54.54,0,0,0-.48,0l-2,1.15c-.12.07-.1.19,0,.28l1.92,1.11A.54.54,0,0,0,101.36,110.4Z"/><path class="cls-7" d="M137.2,98l0,0-.2-.14-13.92-8a3.86,3.86,0,0,0-3.46-.14L85.19,109.64c-.82-.59-.86-1.38,0-1.85l34.42-20A3.86,3.86,0,0,1,123,88L137,96C138,96.6,138.08,97.5,137.2,98Z"/><path class="cls-8" d="M90.8,152.2,71.22,141a4.78,4.78,0,0,1-2-3.81v-7c0-1.47.89-2.15,2-1.51L90.8,139.89a4.76,4.76,0,0,1,2,3.81v7C92.79,152.16,91.9,152.84,90.8,152.2Z"/><path class="cls-12" d="M70.51,128.47a1.93,1.93,0,0,0-.51,1.45v7a4.77,4.77,0,0,0,2,3.81l19.57,11.21a1.41,1.41,0,0,0,1,.21,1.17,1.17,0,0,1-1.49,0L71.47,141a4.78,4.78,0,0,1-2-3.81v-7C69.48,129.19,69.9,128.57,70.51,128.47Z"/><path class="cls-3" d="M85.16,144.6l-1.8-1a1,1,0,0,1-.43-.83v-1.91c0-.32.19-.47.43-.33l1.8,1a1,1,0,0,1,.43.83v1.92C85.59,144.59,85.4,144.74,85.16,144.6Z"/><path class="cls-6" d="M79.16,141.13l-1.8-1a1,1,0,0,1-.43-.83v-1.92c0-.32.19-.47.43-.33l1.8,1a1,1,0,0,1,.43.83v1.92C79.59,141.13,79.4,141.27,79.16,141.13Z"/><path class="cls-8" d="M90.8,202.78l-19.58-11.2a4.79,4.79,0,0,1-2-3.81v-7c0-1.47.89-2.15,2-1.51l19.58,11.2a4.8,4.8,0,0,1,2,3.82v7C92.79,202.74,91.9,203.42,90.8,202.78Z"/><path class="cls-12" d="M70.51,179.05A1.93,1.93,0,0,0,70,180.5v7a4.77,4.77,0,0,0,2,3.81l19.57,11.21a1.46,1.46,0,0,0,1,.21,1.17,1.17,0,0,1-1.49.05l-19.58-11.2a4.79,4.79,0,0,1-2-3.81v-7C69.48,179.77,69.9,179.15,70.51,179.05Z"/><path class="cls-3" d="M85.16,195.18l-1.8-1a1,1,0,0,1-.43-.83v-1.92c0-.32.19-.46.43-.32l1.8,1a1,1,0,0,1,.43.83v1.92C85.59,195.17,85.4,195.32,85.16,195.18Z"/><path class="cls-6" d="M79.16,191.71l-1.8-1a1,1,0,0,1-.43-.83v-1.92c0-.32.19-.47.43-.33l1.8,1a1,1,0,0,1,.43.83v1.91C79.59,191.7,79.4,191.85,79.16,191.71Z"/><path class="cls-8" d="M91.05,228.07l-19.58-11.2a4.79,4.79,0,0,1-2-3.81v-7c0-1.47.89-2.15,2-1.51l19.58,11.2a4.79,4.79,0,0,1,2,3.81v7C93,228,92.15,228.71,91.05,228.07Z"/><path class="cls-12" d="M70.51,204.34a1.93,1.93,0,0,0-.51,1.45v7a4.77,4.77,0,0,0,2,3.81l19.57,11.21a1.46,1.46,0,0,0,1,.21,1.17,1.17,0,0,1-1.49,0l-19.58-11.2a4.79,4.79,0,0,1-2-3.81v-7C69.48,205.06,69.9,204.44,70.51,204.34Z"/><path class="cls-3" d="M85.16,220.47l-1.8-1a1,1,0,0,1-.43-.83v-1.92c0-.32.19-.46.43-.33l1.8,1a1,1,0,0,1,.43.83v1.92C85.59,220.46,85.4,220.61,85.16,220.47Z"/><path class="cls-6" d="M79.16,217l-1.8-1a1,1,0,0,1-.43-.83v-1.92c0-.32.19-.47.43-.33l1.8,1a1,1,0,0,1,.43.83v1.91C79.59,217,79.4,217.14,79.16,217Z"/><path class="cls-8" d="M90.8,177.49l-19.58-11.2a4.79,4.79,0,0,1-2-3.81v-7c0-1.47.89-2.15,2-1.51L90.8,165.18a4.76,4.76,0,0,1,2,3.81v7C92.79,177.45,91.9,178.13,90.8,177.49Z"/><path class="cls-12" d="M70.51,153.76a1.93,1.93,0,0,0-.51,1.45v7A4.77,4.77,0,0,0,72,166l19.57,11.21a1.46,1.46,0,0,0,1,.21,1.17,1.17,0,0,1-1.49.05l-19.58-11.2a4.79,4.79,0,0,1-2-3.81v-7C69.48,154.48,69.9,153.86,70.51,153.76Z"/><path class="cls-3" d="M85.16,169.89l-1.8-1a1,1,0,0,1-.43-.83V166.1c0-.32.19-.46.43-.32l1.8,1a1,1,0,0,1,.43.83v1.92C85.59,169.88,85.4,170,85.16,169.89Z"/><path class="cls-6" d="M79.16,166.42l-1.8-1a1,1,0,0,1-.43-.83v-1.92c0-.32.19-.47.43-.33l1.8,1a1,1,0,0,1,.43.83v1.91C79.59,166.41,79.4,166.56,79.16,166.42Z"/><path class="cls-7" d="M108,145,153.16,119a4.4,4.4,0,0,0,1.83-3.5v-8.61c0-1.35-.82-2-1.83-1.38L108,131.55a4.38,4.38,0,0,0-1.83,3.49v8.62C106.17,145,107,145.62,108,145Z"/><path class="cls-13" d="M109.3,142l42.56-24.57a2.24,2.24,0,0,0,.93-1.78V109.2c0-.69-.42-1-.93-.7L109.3,133.07a2.21,2.21,0,0,0-.93,1.77v6.48C108.37,142,108.78,142.32,109.3,142Z"/><path class="cls-5" d="M143,119.29l6.35-3.66a2.16,2.16,0,0,0,.9-1.73h0c0-.66-.4-1-.9-.68L143,116.89a2.16,2.16,0,0,0-.9,1.72h0C142.09,119.28,142.49,119.58,143,119.29Z"/><path class="cls-8" d="M137.58,121.22c0,.66.46.93,1,.6a2.31,2.31,0,0,0,1-1.8c0-.67-.47-.94-1-.61A2.3,2.3,0,0,0,137.58,121.22Z"/><path class="cls-8" d="M133.9,123.34c0,.66.47.93,1,.6a2.29,2.29,0,0,0,1.05-1.8c0-.67-.47-.94-1.05-.61A2.33,2.33,0,0,0,133.9,123.34Z"/><path class="cls-5" d="M130.23,125.46c0,.66.47.93,1,.6a2.28,2.28,0,0,0,1-1.8c0-.67-.46-.94-1-.61A2.33,2.33,0,0,0,130.23,125.46Z"/><path class="cls-8" d="M126.56,127.58c0,.66.46.93,1,.6a2.31,2.31,0,0,0,1-1.8c0-.67-.47-.94-1-.6A2.27,2.27,0,0,0,126.56,127.58Z"/><path class="cls-8" d="M111.09,138.41l2.14-1.23a1.42,1.42,0,0,0,.57-1.11v-2.26c0-.43-.26-.62-.57-.44l-2.14,1.24a1.38,1.38,0,0,0-.58,1.1V138C110.51,138.4,110.77,138.6,111.09,138.41Z"/><path class="cls-7" d="M108,160.22l45.16-26.07a4.38,4.38,0,0,0,1.83-3.5V122c0-1.34-.82-2-1.83-1.38L108,146.73a4.4,4.4,0,0,0-1.83,3.5v8.61C106.17,160.19,107,160.81,108,160.22Z"/><path class="cls-13" d="M109.3,157.2l42.56-24.57a2.24,2.24,0,0,0,.93-1.77v-6.48c0-.68-.42-1-.93-.7L109.3,148.25a2.21,2.21,0,0,0-.93,1.78v6.47C108.37,157.19,108.78,157.5,109.3,157.2Z"/><path class="cls-5" d="M143,134.48l6.35-3.67a2.16,2.16,0,0,0,.9-1.72h0c0-.67-.4-1-.9-.68L143,132.07a2.16,2.16,0,0,0-.9,1.73h0C142.09,134.46,142.49,134.77,143,134.48Z"/><path class="cls-6" d="M137.58,136.4c0,.66.46.93,1,.6a2.31,2.31,0,0,0,1-1.8c0-.67-.47-.93-1-.6A2.28,2.28,0,0,0,137.58,136.4Z"/><path class="cls-8" d="M133.9,138.52c0,.67.47.93,1,.6a2.29,2.29,0,0,0,1.05-1.8c0-.66-.47-.93-1.05-.6A2.31,2.31,0,0,0,133.9,138.52Z"/><path class="cls-5" d="M130.23,140.64c0,.67.47.94,1,.6a2.28,2.28,0,0,0,1-1.8c0-.66-.46-.93-1-.6A2.31,2.31,0,0,0,130.23,140.64Z"/><path class="cls-8" d="M126.56,142.76c0,.67.46.94,1,.6a2.31,2.31,0,0,0,1-1.8c0-.66-.47-.93-1-.6A2.28,2.28,0,0,0,126.56,142.76Z"/><path class="cls-8" d="M111.09,153.6l2.14-1.24a1.4,1.4,0,0,0,.57-1.1V149c0-.42-.26-.62-.57-.43l-2.14,1.23a1.4,1.4,0,0,0-.58,1.11v2.26C110.51,153.59,110.77,153.78,111.09,153.6Z"/><path class="cls-7" d="M108,175.41l45.16-26.07a4.4,4.4,0,0,0,1.83-3.5v-8.61c0-1.35-.82-2-1.83-1.39L108,161.92a4.36,4.36,0,0,0-1.83,3.49V174C106.17,175.37,107,176,108,175.41Z"/><path class="cls-13" d="M109.3,172.39l42.56-24.58a2.22,2.22,0,0,0,.93-1.77v-6.47c0-.69-.42-1-.93-.71L109.3,163.44a2.19,2.19,0,0,0-.93,1.77v6.48C108.37,172.37,108.78,172.68,109.3,172.39Z"/><path class="cls-5" d="M143,149.66l6.35-3.67a2.13,2.13,0,0,0,.9-1.72h0c0-.66-.4-1-.9-.68L143,147.26a2.14,2.14,0,0,0-.9,1.72h0C142.09,149.64,142.49,150,143,149.66Z"/><path class="cls-6" d="M137.58,151.58c0,.67.46.94,1,.61a2.33,2.33,0,0,0,1-1.81c0-.66-.47-.93-1-.6A2.28,2.28,0,0,0,137.58,151.58Z"/><path class="cls-8" d="M133.9,153.71c0,.66.47.93,1,.6A2.31,2.31,0,0,0,136,152.5c0-.66-.47-.93-1.05-.6A2.31,2.31,0,0,0,133.9,153.71Z"/><path class="cls-5" d="M130.23,155.83c0,.66.47.93,1,.6a2.3,2.3,0,0,0,1-1.81c0-.66-.46-.93-1-.6A2.31,2.31,0,0,0,130.23,155.83Z"/><path class="cls-8" d="M126.56,158c0,.66.46.93,1,.6a2.31,2.31,0,0,0,1-1.81c0-.66-.47-.93-1-.6A2.3,2.3,0,0,0,126.56,158Z"/><path class="cls-8" d="M111.09,168.78l2.14-1.23a1.42,1.42,0,0,0,.57-1.11v-2.26c0-.43-.26-.62-.57-.44L111.09,165a1.38,1.38,0,0,0-.58,1.1v2.26C110.51,168.77,110.77,169,111.09,168.78Z"/><path class="cls-7" d="M108,190.59l45.16-26.07A4.38,4.38,0,0,0,155,161v-8.61c0-1.35-.82-2-1.83-1.38L108,177.1a4.38,4.38,0,0,0-1.83,3.5v8.61C106.17,190.55,107,191.17,108,190.59Z"/><path class="cls-13" d="M109.3,187.57,151.86,163a2.24,2.24,0,0,0,.93-1.78v-6.47c0-.68-.42-1-.93-.7L109.3,178.62a2.21,2.21,0,0,0-.93,1.78v6.47C108.37,187.55,108.78,187.87,109.3,187.57Z"/><path class="cls-5" d="M143,164.85l6.35-3.67a2.16,2.16,0,0,0,.9-1.72h0c0-.67-.4-1-.9-.69L143,162.44a2.16,2.16,0,0,0-.9,1.72h0C142.09,164.83,142.49,165.13,143,164.85Z"/><path class="cls-8" d="M137.58,166.77c0,.66.46.93,1,.6a2.31,2.31,0,0,0,1-1.8c0-.67-.47-.94-1-.6A2.27,2.27,0,0,0,137.58,166.77Z"/><path class="cls-8" d="M133.9,168.89c0,.66.47.93,1,.6a2.29,2.29,0,0,0,1.05-1.8c0-.67-.47-.94-1.05-.6A2.31,2.31,0,0,0,133.9,168.89Z"/><path class="cls-5" d="M130.23,171c0,.66.47.93,1,.6a2.28,2.28,0,0,0,1-1.8c0-.67-.46-.94-1-.6A2.31,2.31,0,0,0,130.23,171Z"/><path class="cls-8" d="M126.56,173.13c0,.66.46.93,1,.6a2.31,2.31,0,0,0,1-1.8c0-.67-.47-.94-1-.6A2.28,2.28,0,0,0,126.56,173.13Z"/><path class="cls-5" d="M111.09,184l2.14-1.24a1.4,1.4,0,0,0,.57-1.1v-2.27c0-.42-.26-.62-.57-.44l-2.14,1.24a1.38,1.38,0,0,0-.58,1.1v2.27C110.51,184,110.77,184.15,111.09,184Z"/><path class="cls-7" d="M108,205.77l45.16-26.07a4.38,4.38,0,0,0,1.83-3.49V167.6c0-1.35-.82-2-1.83-1.39L108,192.28a4.4,4.4,0,0,0-1.83,3.5v8.61C106.17,205.74,107,206.36,108,205.77Z"/><path class="cls-13" d="M109.3,202.75l42.56-24.57a2.24,2.24,0,0,0,.93-1.77v-6.48c0-.68-.42-1-.93-.7L109.3,193.81a2.19,2.19,0,0,0-.93,1.77v6.47C108.37,202.74,108.78,203.05,109.3,202.75Z"/><path class="cls-5" d="M143,180l6.35-3.67a2.16,2.16,0,0,0,.9-1.72h0c0-.66-.4-1-.9-.68L143,177.63a2.13,2.13,0,0,0-.9,1.72h0C142.09,180,142.49,180.32,143,180Z"/><path class="cls-8" d="M137.58,182c0,.67.46.94,1,.6a2.31,2.31,0,0,0,1-1.8c0-.66-.47-.93-1-.6A2.28,2.28,0,0,0,137.58,182Z"/><path class="cls-6" d="M133.9,184.07c0,.67.47.94,1,.6a2.29,2.29,0,0,0,1.05-1.8c0-.66-.47-.93-1.05-.6A2.31,2.31,0,0,0,133.9,184.07Z"/><path class="cls-5" d="M130.23,186.19c0,.67.47.94,1,.6a2.27,2.27,0,0,0,1-1.8c0-.66-.46-.93-1-.6A2.31,2.31,0,0,0,130.23,186.19Z"/><path class="cls-6" d="M126.56,188.31c0,.67.46.94,1,.6a2.3,2.3,0,0,0,1-1.8c0-.66-.47-.93-1-.6A2.28,2.28,0,0,0,126.56,188.31Z"/><path class="cls-5" d="M111.09,199.15l2.14-1.24a1.38,1.38,0,0,0,.57-1.1v-2.26c0-.43-.26-.63-.57-.44l-2.14,1.23a1.4,1.4,0,0,0-.58,1.11v2.26C110.51,199.14,110.77,199.33,111.09,199.15Z"/><path class="cls-7" d="M108,221l45.16-26.07a4.4,4.4,0,0,0,1.83-3.5v-8.61c0-1.35-.82-2-1.83-1.38L108,207.47a4.38,4.38,0,0,0-1.83,3.49v8.61C106.17,220.92,107,221.54,108,221Z"/><path class="cls-13" d="M109.3,217.94l42.56-24.58a2.22,2.22,0,0,0,.93-1.77v-6.47c0-.69-.42-1-.93-.7L109.3,209a2.21,2.21,0,0,0-.93,1.77v6.48C108.37,217.92,108.78,218.23,109.3,217.94Z"/><path class="cls-5" d="M143,195.21l6.35-3.66a2.16,2.16,0,0,0,.9-1.73h0c0-.66-.4-1-.9-.68L143,192.81a2.16,2.16,0,0,0-.9,1.72h0C142.09,195.2,142.49,195.5,143,195.21Z"/><path class="cls-8" d="M137.58,197.14c0,.66.46.93,1,.6a2.31,2.31,0,0,0,1-1.81c0-.66-.47-.93-1-.6A2.3,2.3,0,0,0,137.58,197.14Z"/><path class="cls-8" d="M133.9,199.26c0,.66.47.93,1,.6a2.3,2.3,0,0,0,1.05-1.81c0-.66-.47-.93-1.05-.6A2.33,2.33,0,0,0,133.9,199.26Z"/><path class="cls-5" d="M130.23,201.38c0,.66.47.93,1,.6a2.28,2.28,0,0,0,1-1.8c0-.67-.46-.94-1-.61A2.33,2.33,0,0,0,130.23,201.38Z"/><path class="cls-8" d="M126.56,203.5c0,.66.46.93,1,.6a2.31,2.31,0,0,0,1-1.8c0-.67-.47-.94-1-.61A2.3,2.3,0,0,0,126.56,203.5Z"/><path class="cls-8" d="M111.09,214.33l2.14-1.23a1.42,1.42,0,0,0,.57-1.11v-2.26c0-.43-.26-.62-.57-.44l-2.14,1.24a1.38,1.38,0,0,0-.58,1.1v2.27C110.51,214.32,110.77,214.52,111.09,214.33Z"/><path class="cls-7" d="M108,236.14l45.16-26.07a4.38,4.38,0,0,0,1.83-3.5V198c0-1.34-.82-2-1.83-1.38L108,222.65a4.38,4.38,0,0,0-1.83,3.5v8.61C106.17,236.11,107,236.73,108,236.14Z"/><path class="cls-13" d="M109.3,233.12l42.56-24.57a2.24,2.24,0,0,0,.93-1.78V200.3c0-.68-.42-1-.93-.7L109.3,224.17a2.21,2.21,0,0,0-.93,1.78v6.47C108.37,233.1,108.78,233.42,109.3,233.12Z"/><path class="cls-5" d="M143,210.4l6.35-3.67a2.16,2.16,0,0,0,.9-1.72h0c0-.67-.4-1-.9-.68L143,208a2.16,2.16,0,0,0-.9,1.73h0C142.09,210.38,142.49,210.68,143,210.4Z"/><path class="cls-6" d="M136.42,213.14c0,1.26.88,1.76,2,1.14a4.34,4.34,0,0,0,2-3.41c0-1.25-.88-1.76-2-1.13A4.34,4.34,0,0,0,136.42,213.14Z"/><path class="cls-8" d="M128.81,217.59c0,.67.46.94,1,.6a2.3,2.3,0,0,0,1-1.8c0-.66-.47-.93-1-.6A2.28,2.28,0,0,0,128.81,217.59Z"/><path class="cls-5" d="M125.14,219.71c0,.67.46.94,1,.6a2.3,2.3,0,0,0,1-1.8c0-.66-.47-.93-1-.6A2.28,2.28,0,0,0,125.14,219.71Z"/><path class="cls-8" d="M121.46,221.83c0,.67.47.94,1,.61a2.3,2.3,0,0,0,1-1.81c0-.66-.46-.93-1-.6A2.31,2.31,0,0,0,121.46,221.83Z"/><path class="cls-5" d="M111.09,229.52l2.14-1.24a1.4,1.4,0,0,0,.57-1.1v-2.27c0-.42-.26-.62-.57-.43l-2.14,1.23a1.4,1.4,0,0,0-.58,1.11v2.26C110.51,229.51,110.77,229.7,111.09,229.52Z"/><path class="cls-10" d="M147.48,259.63h0V147.11l44.73-11.71,8.24-4.75a8.21,8.21,0,0,1,7.38.3l7.68,4.44h23.86L232.31,244a2.15,2.15,0,0,1-1.27,2L186.4,279.66a8.21,8.21,0,0,1-7.38-.3l-29.75-17.18C148,261.45,147.41,260.51,147.48,259.63Z"/><path class="cls-5" d="M203.87,129.92a8.54,8.54,0,0,1,4,1l7.68,4.44h23.86V248.2a2.13,2.13,0,0,1-1.26,2L186.4,279.66a6.53,6.53,0,0,1-3.42.73l-.54-113.53Z"/><path class="cls-7" d="M185.93,279.9a8.45,8.45,0,0,1-5.9-.07V165.52h5.9Z"/><path class="cls-5" d="M186.4,166.88l51.71-29.49c1.89-1.09,1.65-3-.53-4.26L207.83,116a8.21,8.21,0,0,0-7.38-.31l-51.71,29.49c-1.89,1.09-1.65,3,.53,4.25L179,166.57A8.21,8.21,0,0,0,186.4,166.88Z"/><path class="cls-11" d="M149.27,147.3,179,164.48a8.21,8.21,0,0,0,7.38.31l51.71-29.49a2.78,2.78,0,0,0,.94-.84c.65,1,.35,2.18-.94,2.93L186.4,166.88a8.21,8.21,0,0,1-7.38-.31l-29.75-17.18c-1.69-1-2.21-2.34-1.47-3.42A4.1,4.1,0,0,0,149.27,147.3Z"/><path class="cls-2" d="M184.94,154.93l34.42-20c.89-.51.78-1.4-.25-2l-13.92-8a3.83,3.83,0,0,0-3.45-.14l-34.42,20c-.89.51-.78,1.41.24,2l13.93,8A3.84,3.84,0,0,0,184.94,154.93Z"/><path class="cls-5" d="M203.52,135.87l2-1.15c.12-.07.1-.2,0-.28l-1.92-1.11a.54.54,0,0,0-.48,0l-2,1.15c-.12.07-.1.2,0,.28l1.92,1.11A.54.54,0,0,0,203.52,135.87Z"/><path class="cls-5" d="M196.86,139.7l2-1.15c.13-.07.11-.19,0-.28l-1.93-1.11a.54.54,0,0,0-.48,0l-2,1.15c-.12.07-.11.2,0,.28l1.93,1.11A.54.54,0,0,0,196.86,139.7Z"/><path class="cls-5" d="M190.19,143.53l2-1.15c.12-.07.11-.19,0-.27L190.23,141a.54.54,0,0,0-.48,0l-2,1.16c-.13.07-.11.19,0,.27l1.93,1.11A.49.49,0,0,0,190.19,143.53Z"/><path class="cls-5" d="M183.53,147.37l2-1.16c.13-.07.11-.19,0-.27l-1.93-1.11a.49.49,0,0,0-.47,0l-2,1.15c-.12.07-.11.19,0,.27l1.92,1.12A.54.54,0,0,0,183.53,147.37Z"/><path class="cls-7" d="M219.36,135l0,0-.21-.15-13.92-8a3.84,3.84,0,0,0-3.45-.15L167.36,146.6c-.82-.58-.86-1.37,0-1.85l34.42-20a3.83,3.83,0,0,1,3.45.14l13.92,8C220.14,133.57,220.25,134.46,219.36,135Z"/><path class="cls-8" d="M173.21,189.17,153.64,178a4.76,4.76,0,0,1-2-3.81v-7c0-1.46.89-2.14,2-1.5l19.57,11.2a4.76,4.76,0,0,1,2,3.81v7C175.21,189.13,174.32,189.81,173.21,189.17Z"/><path class="cls-12" d="M152.67,165.44a1.93,1.93,0,0,0-.5,1.45v7a4.75,4.75,0,0,0,2,3.81l19.57,11.21a1.45,1.45,0,0,0,1,.21,1.2,1.2,0,0,1-1.5,0L153.64,178a4.76,4.76,0,0,1-2-3.81v-7C151.65,166.16,152.06,165.54,152.67,165.44Z"/><path class="cls-3" d="M167.33,181.57l-1.8-1a1,1,0,0,1-.43-.83v-1.92c0-.32.19-.47.43-.33l1.8,1a1,1,0,0,1,.43.83v1.92C167.76,181.56,167.57,181.71,167.33,181.57Z"/><path class="cls-6" d="M161.32,178.1l-1.79-1a1,1,0,0,1-.44-.83v-1.91c0-.32.2-.47.44-.33l1.79,1a1,1,0,0,1,.44.83v1.92C161.76,178.09,161.56,178.24,161.32,178.1Z"/><path class="cls-8" d="M173.21,239.75l-19.57-11.21a4.76,4.76,0,0,1-2-3.81v-7c0-1.47.89-2.14,2-1.5l19.57,11.2a4.76,4.76,0,0,1,2,3.81v7C175.21,239.71,174.32,240.39,173.21,239.75Z"/><path class="cls-12" d="M152.67,216a2,2,0,0,0-.5,1.46v7a4.76,4.76,0,0,0,2,3.81l19.57,11.21a1.45,1.45,0,0,0,1,.21,1.21,1.21,0,0,1-1.5.05l-19.57-11.21a4.76,4.76,0,0,1-2-3.81v-7C151.65,216.74,152.06,216.12,152.67,216Z"/><path class="cls-3" d="M167.33,232.15l-1.8-1a1,1,0,0,1-.43-.83v-1.92c0-.32.19-.47.43-.33l1.8,1a1,1,0,0,1,.43.83v1.92C167.76,232.14,167.57,232.28,167.33,232.15Z"/><path class="cls-6" d="M161.32,228.68l-1.79-1a1,1,0,0,1-.44-.83v-1.92c0-.32.2-.46.44-.32l1.79,1a1,1,0,0,1,.44.83v1.92C161.76,228.67,161.56,228.82,161.32,228.68Z"/><path class="cls-8" d="M173.21,265l-19.57-11.21a4.76,4.76,0,0,1-2-3.81v-7c0-1.47.89-2.14,2-1.5l19.57,11.2a4.76,4.76,0,0,1,2,3.81v7C175.21,265,174.32,265.67,173.21,265Z"/><path class="cls-12" d="M152.67,241.3a2,2,0,0,0-.5,1.46v7a4.76,4.76,0,0,0,2,3.81l19.57,11.21a1.45,1.45,0,0,0,1,.21,1.21,1.21,0,0,1-1.5.05l-19.57-11.21a4.76,4.76,0,0,1-2-3.81v-7C151.65,242,152.06,241.41,152.67,241.3Z"/><path class="cls-3" d="M167.33,257.44l-1.8-1a1,1,0,0,1-.43-.83v-1.92c0-.32.19-.47.43-.33l1.8,1a1,1,0,0,1,.43.83v1.92C167.76,257.43,167.57,257.57,167.33,257.44Z"/><path class="cls-6" d="M161.32,254l-1.79-1a1,1,0,0,1-.44-.83v-1.92c0-.32.2-.46.44-.32l1.79,1a1,1,0,0,1,.44.83v1.92C161.76,254,161.56,254.11,161.32,254Z"/><path class="cls-8" d="M173.21,214.46l-19.57-11.21a4.76,4.76,0,0,1-2-3.81v-7c0-1.46.89-2.14,2-1.5l19.57,11.2a4.76,4.76,0,0,1,2,3.81v7C175.21,214.42,174.32,215.1,173.21,214.46Z"/><path class="cls-12" d="M152.67,190.73a1.93,1.93,0,0,0-.5,1.45v7a4.75,4.75,0,0,0,2,3.81l19.57,11.21a1.45,1.45,0,0,0,1,.21,1.2,1.2,0,0,1-1.5.05l-19.57-11.21a4.76,4.76,0,0,1-2-3.81v-7C151.65,191.45,152.06,190.83,152.67,190.73Z"/><path class="cls-3" d="M167.33,206.86l-1.8-1a1,1,0,0,1-.43-.83v-1.92c0-.32.19-.47.43-.33l1.8,1a1,1,0,0,1,.43.83v1.92C167.76,206.85,167.57,207,167.33,206.86Z"/><path class="cls-6" d="M161.32,203.39l-1.79-1a1,1,0,0,1-.44-.83v-1.91c0-.32.2-.47.44-.33l1.79,1a1,1,0,0,1,.44.83v1.92C161.76,203.38,161.56,203.53,161.32,203.39Z"/><path class="cls-7" d="M190.17,182l45.15-26.08a4.36,4.36,0,0,0,1.83-3.49v-8.61c0-1.35-.82-2-1.83-1.39l-45.15,26.07a4.4,4.4,0,0,0-1.83,3.5v8.61C188.34,182,189.16,182.59,190.17,182Z"/><path class="cls-13" d="M191.46,179,234,154.41a2.21,2.21,0,0,0,.92-1.77v-6.48c0-.68-.41-1-.92-.7L191.46,170a2.22,2.22,0,0,0-.93,1.77v6.47C190.53,179,191,179.28,191.46,179Z"/><path class="cls-5" d="M225.16,156.26l6.35-3.67a2.14,2.14,0,0,0,.9-1.72h0c0-.66-.4-1-.9-.68l-6.35,3.67a2.15,2.15,0,0,0-.91,1.72h0C224.25,156.24,224.66,156.55,225.16,156.26Z"/><path class="cls-8" d="M219.74,158.18c0,.67.47.94,1,.61a2.31,2.31,0,0,0,1.05-1.81c0-.66-.47-.93-1.05-.6A2.31,2.31,0,0,0,219.74,158.18Z"/><path class="cls-8" d="M216.07,160.3c0,.67.47.94,1,.61a2.3,2.3,0,0,0,1-1.81c0-.66-.46-.93-1-.6A2.31,2.31,0,0,0,216.07,160.3Z"/><path class="cls-5" d="M212.4,162.43c0,.66.46.93,1,.6a2.33,2.33,0,0,0,1-1.81c0-.66-.47-.93-1-.6A2.29,2.29,0,0,0,212.4,162.43Z"/><path class="cls-8" d="M208.72,164.55c0,.66.47.93,1.05.6a2.33,2.33,0,0,0,1-1.81c0-.66-.47-.93-1-.6A2.3,2.3,0,0,0,208.72,164.55Z"/><path class="cls-8" d="M193.25,175.38l2.14-1.23A1.4,1.4,0,0,0,196,173v-2.26c0-.43-.26-.62-.58-.44l-2.14,1.23a1.4,1.4,0,0,0-.58,1.11v2.26C192.67,175.37,192.93,175.57,193.25,175.38Z"/><path class="cls-7" d="M190.17,197.19l45.15-26.07a4.4,4.4,0,0,0,1.83-3.5V159c0-1.35-.82-2-1.83-1.38L190.17,183.7a4.38,4.38,0,0,0-1.83,3.5v8.61C188.34,197.15,189.16,197.77,190.17,197.19Z"/><path class="cls-13" d="M191.46,194.17,234,169.6a2.23,2.23,0,0,0,.92-1.78v-6.47c0-.68-.41-1-.92-.7l-42.57,24.57a2.24,2.24,0,0,0-.93,1.78v6.47C190.53,194.15,191,194.47,191.46,194.17Z"/><path class="cls-5" d="M225.16,171.44l6.35-3.66a2.16,2.16,0,0,0,.9-1.73h0c0-.66-.4-1-.9-.68L225.16,169a2.17,2.17,0,0,0-.91,1.72h0C224.25,171.43,224.66,171.73,225.16,171.44Z"/><path class="cls-6" d="M219.74,173.37c0,.66.47.93,1,.6a2.29,2.29,0,0,0,1.05-1.8c0-.67-.47-.94-1.05-.61A2.33,2.33,0,0,0,219.74,173.37Z"/><path class="cls-8" d="M216.07,175.49c0,.66.47.93,1,.6a2.28,2.28,0,0,0,1-1.8c0-.67-.46-.94-1-.6A2.3,2.3,0,0,0,216.07,175.49Z"/><path class="cls-5" d="M212.4,177.61c0,.66.46.93,1,.6a2.31,2.31,0,0,0,1-1.8c0-.67-.47-.94-1-.6A2.28,2.28,0,0,0,212.4,177.61Z"/><path class="cls-8" d="M208.72,179.73c0,.66.47.93,1.05.6a2.31,2.31,0,0,0,1-1.8c0-.67-.47-.94-1-.6A2.29,2.29,0,0,0,208.72,179.73Z"/><path class="cls-8" d="M193.25,190.57l2.14-1.24a1.38,1.38,0,0,0,.58-1.11V186c0-.43-.26-.62-.58-.44l-2.14,1.24a1.38,1.38,0,0,0-.58,1.1v2.27C192.67,190.55,192.93,190.75,193.25,190.57Z"/><path class="cls-7" d="M190.17,212.37l45.15-26.07a4.38,4.38,0,0,0,1.83-3.49V174.2c0-1.35-.82-2-1.83-1.39l-45.15,26.07a4.4,4.4,0,0,0-1.83,3.5V211C188.34,212.34,189.16,213,190.17,212.37Z"/><path class="cls-13" d="M191.46,209.35,234,184.78A2.23,2.23,0,0,0,235,183v-6.48c0-.68-.41-1-.92-.7L191.46,200.4a2.26,2.26,0,0,0-.93,1.78v6.47C190.53,209.34,191,209.65,191.46,209.35Z"/><path class="cls-5" d="M225.16,186.63l6.35-3.67a2.16,2.16,0,0,0,.9-1.72h0c0-.67-.4-1-.9-.68l-6.35,3.66a2.17,2.17,0,0,0-.91,1.73h0C224.25,186.61,224.66,186.92,225.16,186.63Z"/><path class="cls-6" d="M219.74,188.55c0,.67.47.93,1,.6a2.29,2.29,0,0,0,1.05-1.8c0-.66-.47-.93-1.05-.6A2.31,2.31,0,0,0,219.74,188.55Z"/><path class="cls-8" d="M216.07,190.67c0,.67.47.94,1,.6a2.28,2.28,0,0,0,1-1.8c0-.66-.46-.93-1-.6A2.31,2.31,0,0,0,216.07,190.67Z"/><path class="cls-5" d="M212.4,192.79c0,.67.46.94,1,.6a2.31,2.31,0,0,0,1-1.8c0-.66-.47-.93-1-.6A2.28,2.28,0,0,0,212.4,192.79Z"/><path class="cls-8" d="M208.72,194.91c0,.67.47.94,1.05.6a2.31,2.31,0,0,0,1-1.8c0-.66-.47-.93-1-.6A2.29,2.29,0,0,0,208.72,194.91Z"/><path class="cls-8" d="M193.25,205.75l2.14-1.24a1.38,1.38,0,0,0,.58-1.1v-2.27c0-.42-.26-.62-.58-.43l-2.14,1.23a1.4,1.4,0,0,0-.58,1.11v2.26C192.67,205.74,192.93,205.93,193.25,205.75Z"/><path class="cls-7" d="M190.17,227.56l45.15-26.07a4.4,4.4,0,0,0,1.83-3.5v-8.61c0-1.35-.82-2-1.83-1.38l-45.15,26.07a4.38,4.38,0,0,0-1.83,3.49v8.61C188.34,227.52,189.16,228.14,190.17,227.56Z"/><path class="cls-13" d="M191.46,224.54,234,200a2.21,2.21,0,0,0,.92-1.77v-6.47c0-.69-.41-1-.92-.71l-42.57,24.58a2.22,2.22,0,0,0-.93,1.77v6.48C190.53,224.52,191,224.83,191.46,224.54Z"/><path class="cls-5" d="M225.16,201.81l6.35-3.66a2.16,2.16,0,0,0,.9-1.73h0c0-.66-.4-1-.9-.68l-6.35,3.67a2.17,2.17,0,0,0-.91,1.72h0C224.25,201.79,224.66,202.1,225.16,201.81Z"/><path class="cls-8" d="M219.74,203.74c0,.66.47.93,1,.6a2.31,2.31,0,0,0,1.05-1.81c0-.66-.47-.93-1.05-.6A2.31,2.31,0,0,0,219.74,203.74Z"/><path class="cls-8" d="M216.07,205.86c0,.66.47.93,1,.6a2.29,2.29,0,0,0,1-1.81c0-.66-.46-.93-1-.6A2.31,2.31,0,0,0,216.07,205.86Z"/><path class="cls-5" d="M212.4,208c0,.66.46.93,1,.6a2.31,2.31,0,0,0,1-1.81c0-.66-.47-.93-1-.6A2.3,2.3,0,0,0,212.4,208Z"/><path class="cls-8" d="M208.72,210.1c0,.66.47.93,1.05.6a2.31,2.31,0,0,0,1-1.81c0-.66-.47-.93-1-.6A2.31,2.31,0,0,0,208.72,210.1Z"/><path class="cls-5" d="M193.25,220.93l2.14-1.23a1.4,1.4,0,0,0,.58-1.11v-2.26c0-.43-.26-.62-.58-.44l-2.14,1.24a1.38,1.38,0,0,0-.58,1.1v2.27C192.67,220.92,192.93,221.12,193.25,220.93Z"/><path class="cls-7" d="M190.17,242.74l45.15-26.07a4.38,4.38,0,0,0,1.83-3.5v-8.61c0-1.34-.82-2-1.83-1.38l-45.15,26.07a4.38,4.38,0,0,0-1.83,3.5v8.61C188.34,242.7,189.16,243.32,190.17,242.74Z"/><path class="cls-13" d="M191.46,239.72,234,215.15a2.23,2.23,0,0,0,.92-1.78V206.9c0-.68-.41-1-.92-.7l-42.57,24.57a2.24,2.24,0,0,0-.93,1.78V239C190.53,239.7,191,240,191.46,239.72Z"/><path class="cls-5" d="M225.16,217l6.35-3.67a2.16,2.16,0,0,0,.9-1.72h0c0-.67-.4-1-.9-.69l-6.35,3.67a2.17,2.17,0,0,0-.91,1.72h0C224.25,217,224.66,217.28,225.16,217Z"/><path class="cls-8" d="M219.74,218.92c0,.66.47.93,1,.6a2.29,2.29,0,0,0,1.05-1.8c0-.67-.47-.94-1.05-.6A2.31,2.31,0,0,0,219.74,218.92Z"/><path class="cls-6" d="M216.07,221c0,.66.47.93,1,.6a2.28,2.28,0,0,0,1-1.8c0-.67-.46-.94-1-.6A2.31,2.31,0,0,0,216.07,221Z"/><path class="cls-5" d="M212.4,223.16c0,.66.46.93,1,.6a2.31,2.31,0,0,0,1-1.8c0-.67-.47-.93-1-.6A2.28,2.28,0,0,0,212.4,223.16Z"/><path class="cls-6" d="M208.72,225.28c0,.66.47.93,1.05.6a2.31,2.31,0,0,0,1-1.8c0-.67-.47-.93-1-.6A2.29,2.29,0,0,0,208.72,225.28Z"/><path class="cls-5" d="M193.25,236.12l2.14-1.24a1.38,1.38,0,0,0,.58-1.1v-2.27c0-.42-.26-.62-.58-.44l-2.14,1.24a1.38,1.38,0,0,0-.58,1.11v2.26C192.67,236.11,192.93,236.3,193.25,236.12Z"/><path class="cls-7" d="M190.17,257.92l45.15-26.07a4.38,4.38,0,0,0,1.83-3.49v-8.61c0-1.35-.82-2-1.83-1.39l-45.15,26.07a4.4,4.4,0,0,0-1.83,3.5v8.61C188.34,257.89,189.16,258.51,190.17,257.92Z"/><path class="cls-13" d="M191.46,254.91,234,230.33a2.21,2.21,0,0,0,.92-1.77v-6.48c0-.68-.41-1-.92-.7L191.46,246a2.22,2.22,0,0,0-.93,1.77v6.47C190.53,254.89,191,255.2,191.46,254.91Z"/><path class="cls-5" d="M225.16,232.18l6.35-3.67a2.14,2.14,0,0,0,.9-1.72h0c0-.66-.4-1-.9-.68l-6.35,3.67a2.14,2.14,0,0,0-.91,1.72h0C224.25,232.16,224.66,232.47,225.16,232.18Z"/><path class="cls-8" d="M219.74,234.1c0,.67.47.94,1,.6a2.28,2.28,0,0,0,1.05-1.8c0-.66-.47-.93-1.05-.6A2.31,2.31,0,0,0,219.74,234.1Z"/><path class="cls-8" d="M216.07,236.22c0,.67.47.94,1,.6a2.27,2.27,0,0,0,1-1.8c0-.66-.46-.93-1-.6A2.31,2.31,0,0,0,216.07,236.22Z"/><path class="cls-5" d="M212.4,238.34c0,.67.46.94,1,.61a2.33,2.33,0,0,0,1-1.81c0-.66-.47-.93-1-.6A2.28,2.28,0,0,0,212.4,238.34Z"/><path class="cls-8" d="M208.72,240.46c0,.67.47.94,1.05.61a2.33,2.33,0,0,0,1-1.81c0-.66-.47-.93-1-.6A2.29,2.29,0,0,0,208.72,240.46Z"/><path class="cls-8" d="M193.25,251.3l2.14-1.23A1.4,1.4,0,0,0,196,249V246.7c0-.43-.26-.63-.58-.44l-2.14,1.23a1.4,1.4,0,0,0-.58,1.11v2.26C192.67,251.29,192.93,251.49,193.25,251.3Z"/><path class="cls-7" d="M190.17,273.11,235.32,247a4.4,4.4,0,0,0,1.83-3.5v-8.61c0-1.35-.82-2-1.83-1.38l-45.15,26.07a4.38,4.38,0,0,0-1.83,3.49v8.61C188.34,273.07,189.16,273.69,190.17,273.11Z"/><path class="cls-13" d="M191.46,270.09,234,245.52a2.25,2.25,0,0,0,.92-1.78v-6.47c0-.69-.41-1-.92-.7l-42.57,24.57a2.24,2.24,0,0,0-.93,1.77v6.48C190.53,270.07,191,270.39,191.46,270.09Z"/><path class="cls-5" d="M225.16,247.36l6.35-3.66a2.16,2.16,0,0,0,.9-1.73h0c0-.66-.4-1-.9-.68L225.16,245a2.17,2.17,0,0,0-.91,1.72h0C224.25,247.35,224.66,247.65,225.16,247.36Z"/><path class="cls-6" d="M218.58,250.11c0,1.25.88,1.76,2,1.13a4.35,4.35,0,0,0,2-3.4c0-1.26-.89-1.76-2-1.14A4.34,4.34,0,0,0,218.58,250.11Z"/><path class="cls-8" d="M211,254.56c0,.66.46.93,1,.6a2.31,2.31,0,0,0,1-1.8c0-.67-.47-.93-1-.6A2.28,2.28,0,0,0,211,254.56Z"/><path class="cls-5" d="M207.3,256.68c0,.66.47.93,1,.6a2.28,2.28,0,0,0,1-1.8c0-.67-.46-.93-1-.6A2.31,2.31,0,0,0,207.3,256.68Z"/><path class="cls-8" d="M203.63,258.8c0,.67.47.93,1,.6a2.28,2.28,0,0,0,1-1.8c0-.66-.46-.93-1-.6A2.31,2.31,0,0,0,203.63,258.8Z"/><path class="cls-5" d="M193.25,266.48l2.14-1.23a1.4,1.4,0,0,0,.58-1.11v-2.26c0-.43-.26-.62-.58-.44l-2.14,1.24a1.38,1.38,0,0,0-.58,1.1v2.27C192.67,266.47,192.93,266.67,193.25,266.48Z"/><polygon class="cls-1" points="81.33 296.2 67.6 288.28 81.32 280.36 95.05 288.28 81.33 296.2"/><polygon class="cls-2" points="95.05 278.22 81.33 286.15 81.33 270.3 95.05 262.38 95.05 278.22"/><polygon class="cls-5" points="81.33 270.3 67.6 262.38 81.32 254.46 95.05 262.38 81.33 270.3"/><polygon class="cls-8" points="81.33 286.15 67.6 278.22 67.6 262.38 81.33 270.3 81.33 286.15"/><polygon class="cls-6" points="76.38 277.59 72.55 275.37 72.55 270.94 76.38 273.15 76.38 277.59"/></g></g></svg>