<svg xmlns="http://www.w3.org/2000/svg" width="21.563" height="21.563" viewBox="0 0 21.563 21.563">
  <defs>
    <style>
      .cls-1 {
        fill: #004fac;
        fill-rule: evenodd;
      }
    </style>
  </defs>
  <path id="Shape_1_copy_7" data-name="Shape 1 copy 7" class="cls-1" d="M321.78,440a10.78,10.78,0,1,0,10.78,10.78A10.792,10.792,0,0,0,321.78,440Zm0,19.6a8.82,8.82,0,1,1,8.82-8.82A8.83,8.83,0,0,1,321.78,459.6Zm4.042-12.631-5.544,5.543-2.54-2.541a0.98,0.98,0,1,0-1.386,1.386l3.233,3.234a0.979,0.979,0,0,0,.693.287h0a0.978,0.978,0,0,0,.693-0.287l6.237-6.236A0.98,0.98,0,0,0,325.822,446.969Z" transform="translate(-311 -440)"/>
</svg>
